<?xml version="1.0" encoding="utf-8"?>
<!-- Generator: Adobe Illustrator 23.0.2, SVG Export Plug-In . SVG Version: 6.00 Build 0)  -->
<svg version="1.1" xmlns="http://www.w3.org/2000/svg" xmlns:xlink="http://www.w3.org/1999/xlink" x="0px" y="0px"
	 viewBox="0 0 500 500" style="enable-background:new 0 0 500 500;" xml:space="preserve">
<style type="text/css">
	.st0{fill:#294592;stroke:#2E3192;stroke-width:15;stroke-miterlimit:10;}
	.st1{fill:#FFC33B;stroke:#F8B732;stroke-width:15;stroke-linecap:round;stroke-linejoin:round;stroke-miterlimit:10;}
	.st2{fill:#E6E6E6;stroke:#B3B3B3;stroke-width:15;stroke-linecap:round;stroke-linejoin:round;stroke-miterlimit:10;}
	.st3{opacity:0.5;fill:none;stroke:#FFFFFF;stroke-width:15;stroke-linecap:round;stroke-linejoin:round;stroke-miterlimit:10;}
	.st4{opacity:0.3;fill:none;stroke:#FFFFFF;stroke-width:3;stroke-linecap:round;stroke-linejoin:round;stroke-miterlimit:10;}
	.st5{opacity:0.3;fill:none;stroke:#FFFFFF;stroke-width:12;stroke-linecap:round;stroke-linejoin:round;stroke-miterlimit:10;}
	.st6{fill:#FFC33B;stroke:#F8B732;stroke-width:11;stroke-linecap:round;stroke-linejoin:round;stroke-miterlimit:10;}
	.st7{opacity:0.3;fill:none;stroke:#FFFFFF;stroke-width:7;stroke-linecap:round;stroke-linejoin:round;stroke-miterlimit:10;}
	.st8{fill:none;stroke:#999999;stroke-width:15;stroke-linecap:round;stroke-linejoin:round;stroke-miterlimit:10;}
	.st9{fill:#666666;}
	.st10{fill:#808080;}
	.st11{fill:#4D4D4D;}
	.st12{fill:none;stroke:#333333;stroke-width:12;stroke-linecap:round;stroke-linejoin:round;stroke-miterlimit:10;}
	.st13{fill:none;stroke:#666666;stroke-width:12;stroke-linecap:round;stroke-linejoin:round;stroke-miterlimit:10;}
	.st14{fill:#009245;stroke:#008037;stroke-width:12;stroke-linecap:round;stroke-linejoin:round;stroke-miterlimit:10;}
	.st15{opacity:0.3;fill:none;stroke:#F2F2F2;stroke-width:6;stroke-linecap:round;stroke-linejoin:round;stroke-miterlimit:10;}
	.st16{opacity:0.3;fill:none;stroke:#F2F2F2;stroke-width:7;stroke-linecap:round;stroke-linejoin:round;stroke-miterlimit:10;}
	.st17{fill:none;stroke:#B3B3B3;stroke-width:52;stroke-linecap:round;stroke-linejoin:round;stroke-miterlimit:10;}
	.st18{fill:none;stroke:#E6E6E6;stroke-width:27;stroke-linecap:round;stroke-linejoin:round;stroke-miterlimit:10;}
	.st19{opacity:0.6;fill:none;stroke:#FFFFFF;stroke-width:12;stroke-linecap:round;stroke-linejoin:round;stroke-miterlimit:10;}
	.st20{fill:none;stroke:#C1272D;stroke-width:15;stroke-linecap:round;stroke-linejoin:round;stroke-miterlimit:10;}
	.st21{opacity:0.3;fill:none;stroke:#FFFFFF;stroke-width:5;stroke-linecap:round;stroke-linejoin:round;stroke-miterlimit:10;}
	.st22{fill:#FBC33B;stroke:#FBB03B;stroke-width:15;stroke-linecap:round;stroke-linejoin:round;stroke-miterlimit:10;}
	.st23{opacity:0.6;fill:none;stroke:#FFFFFF;stroke-width:7;stroke-linecap:round;stroke-linejoin:round;stroke-miterlimit:10;}
	.st24{opacity:0.5;fill:none;stroke:#FFFFFF;stroke-width:9;stroke-linecap:round;stroke-linejoin:round;stroke-miterlimit:10;}
	.st25{opacity:0.5;fill:none;stroke:#FFFFFF;stroke-width:6;stroke-linecap:round;stroke-linejoin:round;stroke-miterlimit:10;}
	.st26{opacity:0.3;fill:none;stroke:#FFFFFF;stroke-width:17;stroke-linecap:round;stroke-linejoin:round;stroke-miterlimit:10;}
	.st27{fill:#F7931E;stroke:#F7931E;stroke-width:32;stroke-linecap:round;stroke-linejoin:round;stroke-miterlimit:10;}
	.st28{fill:#F7931E;stroke:#F7931E;stroke-width:11;stroke-linecap:round;stroke-linejoin:round;stroke-miterlimit:10;}
	.st29{opacity:0.6;fill:none;stroke:#FFFFFF;stroke-width:17;stroke-linecap:round;stroke-linejoin:round;stroke-miterlimit:10;}
	.st30{fill:#FFF1B4;stroke:#F8B732;stroke-width:15;stroke-linecap:round;stroke-linejoin:round;stroke-miterlimit:10;}
	.st31{fill:#E6E6E6;stroke:#B3B3B3;stroke-width:6;stroke-linecap:round;stroke-linejoin:round;stroke-miterlimit:10;}
	.st32{fill:#C8322E;stroke:#C90000;stroke-width:8;stroke-linecap:round;stroke-linejoin:round;stroke-miterlimit:10;}
</style>
<g id="Argomenti">
	<g id="Ombre_1_">
	</g>
</g>
<g id="Voti_scrutinio">
	<g id="Cappello">
	</g>
	<g id="Nappa">
	</g>
</g>
<g id="Compiti">
	<g id="Foglio">
	</g>
	<g id="Penna">
		<g id="ombre">
		</g>
	</g>
</g>
<g id="Voti_giornalieri">
	<g id="Voto">
	</g>
	<g id="Ombre">
	</g>
</g>
<g id="Promemoria">
	<g id="Base">
	</g>
	<g id="Scritte">
		<g id="O">
		</g>
	</g>
	<g id="Maniglia">
	</g>
</g>
<g id="Assenze">
	<g>
		<path class="st1" d="M378.09,270.95c-3.07-0.89-7.35-2.5-11.66-5.5c-4.23-2.96-6.72-6.34-8.41-8.75l0,0l-61.49-106.47l0.61,1.05
			c-26.48-48.1-95.4-58.68-146.54-26.3c-47.3,29.94-67.52,89.12-42.25,132.99l-0.48-0.83l62.35,107.99l0,0
			c1.3,2.9,2.38,7.5,2.69,13.12c0.26,4.71-0.39,8.8-1.12,11.82"/>
		<path class="st1" d="M426.3,302.64l-248.89,143.7c-8.96-6.24-15.59-16.82-17.13-27.42c-1.93-13.25,5.04-20.15,5.99-21.05
			c73.56-42.47,147.13-84.94,220.69-127.42c1.36-0.54,10.45-3.92,21.42,3.42C417.47,279.95,424.36,291.06,426.3,302.64z"/>
		<path class="st1" d="M265.35,416.04l89.87-51.88c9.6,16.62-2.74,41.71-27.56,56.04S274.95,432.66,265.35,416.04z"/>
		<path class="st1" d="M171.45,95.96c-5.75,1.29-14.56,3.88-24.29,9.4c-9.88,5.61-16.71,11.96-20.79,16.28
			c-7.78-10.74-2.55-26.79,10.44-34.2C149.26,80.36,164.77,84.17,171.45,95.96z"/>
	</g>
	<g id="ombre_1_">
		<line class="st3" x1="152.15" y1="282.71" x2="194.43" y2="355.95"/>
		<path class="st24" d="M179.09,408.14c-0.46,1.09-2.12,5.35-0.47,10.42c1.48,4.56,4.71,6.98,5.77,7.7
			c5.27-2.99,10.54-5.97,15.82-8.96"/>
		<line class="st24" x1="220.21" y1="405.75" x2="265.6" y2="379.55"/>
		<path class="st3" d="M133.75,250.78c-3.09-5.02-6.91-12.44-9.46-22.02c-2.52-9.49-2.9-17.76-2.72-23.63"/>
		<path class="st25" d="M293.32,415.5c3.97,0.57,7.11,0.41,9.16,0.19c4.67-0.51,18.17-4.83,13.67-3.48l0,0"/>
	</g>
</g>
<g id="Note">
</g>
<g id="Bacheca">
</g>
</svg>
