<?xml version="1.0" encoding="utf-8"?>
<!-- Generator: Adobe Illustrator 23.0.6, SVG Export Plug-In . SVG Version: 6.00 Build 0)  -->
<svg version="1.1" id="Livello_1" xmlns="http://www.w3.org/2000/svg" xmlns:xlink="http://www.w3.org/1999/xlink" x="0px" y="0px"
	 viewBox="0 0 500 500" style="enable-background:new 0 0 500 500;" xml:space="preserve">
<style type="text/css">
	.st0{fill:#FFFFFF;}
	.st1{fill:#707071;}
</style>
<g>
	<path class="st0" d="M250,488c-63.6,0-123.3-24.8-168.3-69.7C36.8,373.3,12,313.6,12,250S36.8,126.7,81.7,81.7S186.4,12,250,12
		s123.3,24.8,168.3,69.7c45,45,69.7,104.7,69.7,168.3s-24.8,123.3-69.7,168.3C373.3,463.2,313.6,488,250,488z"/>
	<path class="st1" d="M250,24c30.5,0,60.1,6,88,17.8c26.9,11.4,51.1,27.7,71.8,48.4c20.8,20.8,37.1,44.9,48.4,71.8
		c11.8,27.8,17.8,57.4,17.8,88s-6,60.1-17.8,88c-11.4,26.9-27.7,51.1-48.4,71.8c-20.8,20.8-44.9,37.1-71.8,48.4
		C310.1,470,280.5,476,250,476s-60.1-6-88-17.8c-26.9-11.4-51.1-27.7-71.8-48.4C69.4,389,53.1,364.9,41.8,338
		C30,310.1,24,280.5,24,250s6-60.1,17.8-88c11.4-26.9,27.7-51.1,48.4-71.8C111,69.4,135.1,53.1,162,41.8C189.9,30,219.5,24,250,24
		 M250,0C111.9,0,0,111.9,0,250s111.9,250,250,250s250-111.9,250-250S388.1,0,250,0L250,0z"/>
</g>
<g>
	<rect x="56.5" y="239.2" class="st0" width="68.7" height="21.5"/>
	<polygon class="st1" points="125.2,239.2 56.5,239.2 56.5,260.8 125.2,260.8 125.2,239.2 	"/>
</g>
<g>
	<rect x="377.1" y="239.2" class="st0" width="68.7" height="21.5"/>
	<polygon class="st1" points="445.8,239.2 377.1,239.2 377.1,260.8 445.8,260.8 445.8,239.2 	"/>
</g>
<g>
	<rect x="242.2" y="375.5" class="st0" width="21.5" height="68.7"/>
	<polygon class="st1" points="263.7,375.5 242.2,375.5 242.2,444.3 263.7,444.3 263.7,375.5 	"/>
</g>
<g>
	<rect x="239.2" y="51.8" class="st0" width="21.5" height="68.7"/>
	<polygon class="st1" points="260.8,51.8 239.2,51.8 239.2,120.5 260.8,120.5 260.8,51.8 	"/>
</g>
<g>
	<rect x="210.4" y="179.5" transform="matrix(0.5 -0.866 0.866 0.5 -7.0402 351.0988)" class="st0" width="180.2" height="4.3"/>
	<polygon class="st1" points="339.4,86.2 237.2,263 261.7,277.1 363.8,100.3 339.4,86.2 	"/>
</g>
</svg>
