<?xml version="1.0" encoding="utf-8"?>
<!-- Generator: Adobe Illustrator 23.0.6, SVG Export Plug-In . SVG Version: 6.00 Build 0)  -->
<svg version="1.1" id="Livello_1" xmlns="http://www.w3.org/2000/svg" xmlns:xlink="http://www.w3.org/1999/xlink" x="0px" y="0px"
	 viewBox="0 0 500 500" style="enable-background:new 0 0 500 500;" xml:space="preserve">
<style type="text/css">
	.st0{display:none;fill:#221F20;}
	.st1{opacity:0.2;fill:#221F20;}
	.st2{display:none;}
	.st3{display:inline;}
	.st4{fill:none;stroke:#999999;stroke-width:15;stroke-linecap:round;stroke-linejoin:round;stroke-miterlimit:10;}
	.st5{display:inline;fill:none;stroke:#999999;stroke-width:15;stroke-linecap:round;stroke-linejoin:round;stroke-miterlimit:10;}
	.st6{display:inline;fill:none;stroke:#C1272D;stroke-width:15;stroke-linecap:round;stroke-linejoin:round;stroke-miterlimit:10;}
	
		.st7{display:inline;opacity:0.3;fill:none;stroke:#FFFFFF;stroke-width:5;stroke-linecap:round;stroke-linejoin:round;stroke-miterlimit:10;enable-background:new    ;}
	.st8{fill:#FBC33B;stroke:#FBB03B;stroke-width:15;stroke-linecap:round;stroke-linejoin:round;stroke-miterlimit:10;}
	
		.st9{display:inline;fill:#FBC33B;stroke:#FBB03B;stroke-width:15;stroke-linecap:round;stroke-linejoin:round;stroke-miterlimit:10;}
	
		.st10{display:inline;opacity:0.6;fill:none;stroke:#FFFFFF;stroke-width:7;stroke-linecap:round;stroke-linejoin:round;stroke-miterlimit:10;enable-background:new    ;}
	
		.st11{display:inline;fill:#FFC33B;stroke:#F8B732;stroke-width:15;stroke-linecap:round;stroke-linejoin:round;stroke-miterlimit:10;}
	.st12{display:inline;fill:none;stroke:#F7931E;stroke-width:37;stroke-linecap:round;stroke-linejoin:round;stroke-miterlimit:10;}
	
		.st13{display:inline;fill:#F7931E;stroke:#F7931E;stroke-width:11;stroke-linecap:round;stroke-linejoin:round;stroke-miterlimit:10;}
	
		.st14{display:inline;opacity:0.6;fill:none;stroke:#FFFFFF;stroke-width:17;stroke-linecap:round;stroke-linejoin:round;stroke-miterlimit:10;enable-background:new    ;}
	
		.st15{display:inline;opacity:0.3;fill:none;stroke:#FFFFFF;stroke-width:17;stroke-linecap:round;stroke-linejoin:round;stroke-miterlimit:10;enable-background:new    ;}
</style>
<g id="Voti">
	<g id="Base">
		<path class="st0" d="M311.4,52.3h91.5c7.3,0,13.3,5.4,13.3,12v371.3c0,6.6-6,12-13.3,12H97.1c-7.3,0-13.3-5.4-13.3-12V64.3
			c0-6.6,6-12,13.3-12h85.3"/>
		<path class="st1" d="M422.3,500H77.7c-20.9,0-37.8-16.6-37.8-37.2v-425c0-20.5,16.9-37.2,37.8-37.2h344.6
			c20.9,0,37.8,16.6,37.8,37.2v425C460.1,483.4,443.2,500,422.3,500z"/>
	</g>
	<g id="Scritte" class="st2">
		<g id="O" class="st3">
			<circle class="st4" cx="150.6" cy="157.4" r="20"/>
			<circle class="st4" cx="150.6" cy="227" r="20"/>
			<circle class="st4" cx="150.6" cy="296.5" r="20"/>
			<circle class="st4" cx="150.6" cy="366" r="20"/>
		</g>
		<line class="st5" x1="203.4" y1="160.8" x2="366.4" y2="160.8"/>
		<line class="st5" x1="201.5" y1="231.9" x2="364.5" y2="231.9"/>
		<line class="st5" x1="201.5" y1="296.5" x2="364.5" y2="296.5"/>
		<line class="st5" x1="201.5" y1="366" x2="364.5" y2="366"/>
		<polyline class="st6" points="135.2,141.3 152.5,160.8 179.1,121.8 		"/>
		<polyline class="st6" points="135.2,212.4 152.5,231.9 179.1,192.9 		"/>
		<line class="st7" x1="135.4" y1="209.1" x2="141.9" y2="215.8"/>
		<line class="st7" x1="141.7" y1="141.8" x2="147.1" y2="148.3"/>
	</g>
	<g id="Maniglia" class="st2">
		<path class="st8" d="M288.6,95.6h-87.1c-6.6,0-12-5.4-12-12V66.9c0-6.6,5.4-12,12-12h87.1c6.6,0,12,5.4,12,12v16.7
			C300.6,90.2,295.2,95.6,288.6,95.6z"/>
		<path class="st9" d="M219,53.6c2.9-14.2,13.4-24.8,25.9-24.8c12.9,0,23.6,11.2,26.1,26"/>
		<polyline class="st10" points="202.9,69 202.9,81.3 245,82.1 		"/>
		<path class="st10" d="M243.5,40.7c-2.1,0.1-4.1,1.3-5.5,2.9c-1.4,1.6-2.4,3.5-3.3,5.4"/>
	</g>
</g>
<g id="Assenze" class="st2">
	<path class="st11" d="M-299.6,70.6L-480.9,391c-9.3,16.4,2.6,36.7,21.4,36.7h362.5c18.9,0,30.7-20.3,21.4-36.7L-256.7,70.6
		C-266.2,53.9-290.2,53.9-299.6,70.6z"/>
	<line class="st12" x1="-278.2" y1="158.8" x2="-278.2" y2="314.6"/>
	<circle class="st13" cx="-278.2" cy="365.6" r="16.8"/>
	<line class="st14" x1="-343.1" y1="205.6" x2="-440" y2="385.5"/>
	<line class="st14" x1="-317.9" y1="158.8" x2="-328" y2="177.3"/>
	<line class="st15" x1="-261.4" y1="193" x2="-261.4" y2="321.9"/>
	<circle class="st15" cx="-261.4" cy="365.6" r="8.4"/>
</g>
</svg>
