<?xml version="1.0" encoding="utf-8"?>
<!-- Generator: Adobe Illustrator 23.0.6, SVG Export Plug-In . SVG Version: 6.00 Build 0)  -->
<svg version="1.1" id="Livello_1" xmlns="http://www.w3.org/2000/svg" xmlns:xlink="http://www.w3.org/1999/xlink" x="0px" y="0px"
	 viewBox="0 0 500 500" style="enable-background:new 0 0 500 500;" xml:space="preserve">
<style type="text/css">
	.st0{opacity:0.64;enable-background:new    ;}
</style>
<g id="Voti_scrutinio">
	<g id="Cappello">
		<path class="st0" d="M458.6,189.1l-188.8-77.3c-13.3-6.1-28.7-6.1-42,0.1L41.3,190.1c-6.4,3-6.1,12.1,0.5,14.7l189.1,74.4
			c11.8,4.6,24.9,4.6,36.7,0l190.7-75.4C464.8,201.2,465,192,458.6,189.1z"/>
		<path class="st0" d="M398.7,237.6v100.1c0,30.4-66.6,55.1-148.8,55.1s-148.6-24.7-148.6-55.1l0.1-98.7l21.4,7.8l107.1,41.8
			c13.2,5.1,27.8,5.1,40.9-0.1l105.3-41.7l0,0L398.7,237.6z"/>
	</g>
	<g id="Nappa">
		<path class="st0" d="M454.3,335.9l-32.4-107.1c-2,1-4.2,1.9-6.3,2.6v107.5c0,11.9,12.2,19.9,23.1,15.2l8.9-3.8
			C453.2,348,456.1,341.8,454.3,335.9z"/>
	</g>
</g>
</svg>
