<?xml version="1.0" encoding="utf-8"?>
<!-- Generator: Adobe Illustrator 23.0.6, SVG Export Plug-In . SVG Version: 6.00 Build 0)  -->
<svg version="1.1" xmlns="http://www.w3.org/2000/svg" xmlns:xlink="http://www.w3.org/1999/xlink" x="0px" y="0px"
	 viewBox="0 0 500 500" style="enable-background:new 0 0 500 500;" xml:space="preserve">
<style type="text/css">
	.st0{display:none;fill:none;stroke:#C1272D;stroke-width:36;stroke-linecap:round;stroke-linejoin:round;stroke-miterlimit:10;}
	.st1{opacity:0.2;}
	.st2{fill:none;stroke:#000000;stroke-width:36;stroke-linecap:round;stroke-linejoin:round;stroke-miterlimit:10;}
	.st3{opacity:0.2;fill:none;stroke:#000000;stroke-width:36;stroke-linecap:round;stroke-linejoin:round;stroke-miterlimit:10;}
	
		.st4{display:none;opacity:0.31;fill:none;stroke:#FFFFFF;stroke-width:15;stroke-linecap:round;stroke-linejoin:round;stroke-miterlimit:10;}
	
		.st5{display:none;opacity:0.26;fill:none;stroke:#FFFFFF;stroke-width:15;stroke-linecap:round;stroke-linejoin:round;stroke-miterlimit:10;}
	
		.st6{display:none;opacity:0.26;fill:none;stroke:#FFFFFF;stroke-width:13;stroke-linecap:round;stroke-linejoin:round;stroke-miterlimit:10;}
	.st7{fill:#E6E6E6;stroke:#B3B3B3;stroke-width:15;stroke-linecap:round;stroke-linejoin:round;stroke-miterlimit:10;}
	.st8{fill:none;stroke:#999999;stroke-width:15;stroke-linecap:round;stroke-linejoin:round;stroke-miterlimit:10;}
	.st9{fill:none;stroke:#C1272D;stroke-width:15;stroke-linecap:round;stroke-linejoin:round;stroke-miterlimit:10;}
	.st10{opacity:0.3;fill:none;stroke:#FFFFFF;stroke-width:5;stroke-linecap:round;stroke-linejoin:round;stroke-miterlimit:10;}
	.st11{fill:#FBC33B;stroke:#FBB03B;stroke-width:15;stroke-linecap:round;stroke-linejoin:round;stroke-miterlimit:10;}
	.st12{opacity:0.6;fill:none;stroke:#FFFFFF;stroke-width:7;stroke-linecap:round;stroke-linejoin:round;stroke-miterlimit:10;}
	.st13{fill:#FFC33B;stroke:#F8B732;stroke-width:15;stroke-linecap:round;stroke-linejoin:round;stroke-miterlimit:10;}
	.st14{fill:none;stroke:#F7931E;stroke-width:37;stroke-linecap:round;stroke-linejoin:round;stroke-miterlimit:10;}
	.st15{fill:#F7931E;stroke:#F7931E;stroke-width:11;stroke-linecap:round;stroke-linejoin:round;stroke-miterlimit:10;}
	.st16{opacity:0.6;fill:none;stroke:#FFFFFF;stroke-width:17;stroke-linecap:round;stroke-linejoin:round;stroke-miterlimit:10;}
	.st17{opacity:0.3;fill:none;stroke:#FFFFFF;stroke-width:17;stroke-linecap:round;stroke-linejoin:round;stroke-miterlimit:10;}
</style>
<g id="Voti">
	<path class="st0" d="M266.3,61.8c-53.8,23.4-105.2,55.8-143.7,101.7S59.7,270.1,63.8,331c1.6,23.8,7.9,48,22.5,66.2
		c21.2,26.4,56.7,36,89.6,34c45-2.7,87.5-23.9,124.4-51c54.2-39.8,99.9-94.5,122.5-159.8c12.4-35.8,16-80.3-8.9-107.9
		c-20.7-22.9-54-26.4-84.2-26"/>
	<g class="st1">
		<path class="st2" d="M303.3,154.5c4.2,29.4,16.5,57.3,35,79.3"/>
		<path class="st2" d="M286.1,208.8c22.1-16,44.9-30.9,68.3-44.7"/>
	</g>
	<g class="st1">
		<path class="st2" d="M172.5,302c-0.6-8-4-20,2.3-26.3c19.6-19.5,42.1-35.6,66.3-47.5"/>
		<path class="st2" d="M172.6,169.8C214.8,222,251.8,276,292.5,329.2"/>
		<path class="st2" d="M180.2,376.7c-0.4-5.7-0.4-10.7-0.4-16.7c-8-61-12-121-17.8-182"/>
	</g>
	<path class="st3" d="M266.8,65c-53.6,22.9-104.7,54.7-142.9,99.7S61.3,269.3,65.4,329c1.6,23.3,7.9,47.1,22.4,65
		c21.1,25.9,56.4,35.3,89.1,33.4c44.8-2.6,87-23.4,123.8-50c53.9-39.1,99.4-92.7,121.8-156.7c12.3-35.1,15.9-78.8-8.9-105.8
		c-20.6-22.5-53.8-25.9-83.8-25.5"/>
	<line class="st4" x1="163.5" y1="264.6" x2="171.1" y2="359.6"/>
	<path class="st5" d="M96,389c38,41.6,99,28.8,102.5,28"/>
	<path class="st5" d="M74.2,335.8c-0.1,5.6,0.6,16.8,7.2,28.5c0.8,1.4,2.1,3.7,3.9,6.2"/>
	<polyline class="st6" points="324.1,231.3 307.2,206.3 295.9,213.2 	"/>
</g>
<g id="Avvisi">
	<g id="Base">
		<path class="st7" d="M-224,75.2h82.8c6.6,0,12,5,12,11.1v341.4c0,6.1-5.4,11.1-12,11.1H-418c-6.6,0-12-5-12-11.1V86.3
			c0-6.1,5.4-11.1,12-11.1h77.2"/>
	</g>
	<g id="Scritte">
		<g id="O">
			<circle class="st8" cx="-377.5" cy="157.4" r="20"/>
			<circle class="st8" cx="-377.5" cy="227" r="20"/>
			<circle class="st8" cx="-377.5" cy="296.5" r="20"/>
			<circle class="st8" cx="-377.5" cy="366.1" r="20"/>
		</g>
		<line class="st8" x1="-324.6" y1="160.8" x2="-161.6" y2="160.8"/>
		<line class="st8" x1="-326.5" y1="231.9" x2="-163.5" y2="231.9"/>
		<line class="st8" x1="-326.5" y1="296.5" x2="-163.5" y2="296.5"/>
		<line class="st8" x1="-326.5" y1="366.1" x2="-163.5" y2="366.1"/>
		<polyline class="st9" points="-392.9,141.3 -375.6,160.8 -348.9,121.8 		"/>
		<polyline class="st9" points="-392.9,212.4 -375.6,231.9 -348.9,192.9 		"/>
		<line class="st10" x1="-392.6" y1="209" x2="-386.2" y2="215.8"/>
		<line class="st10" x1="-386.4" y1="141.8" x2="-380.9" y2="148.3"/>
	</g>
	<g id="Maniglia">
		<path class="st11" d="M-239.5,95.6h-87.1c-6.6,0-12-5.4-12-12V66.9c0-6.6,5.4-12,12-12h87.1c6.6,0,12,5.4,12,12v16.7
			C-227.5,90.2-232.9,95.6-239.5,95.6z"/>
		<path class="st11" d="M-309,53.6c2.9-14.2,13.3-24.8,25.9-24.8c12.9,0,23.6,11.2,26.1,26"/>
		<polyline class="st12" points="-325.1,69 -325.1,81.3 -283.1,82.1 		"/>
		<path class="st12" d="M-284.6,40.7c-2.1,0.1-4,1.3-5.5,2.9s-2.4,3.5-3.3,5.4"/>
	</g>
</g>
<g id="Assenze">
	<path class="st13" d="M-827.6,70.6L-1008.9,391c-9.3,16.4,2.6,36.7,21.4,36.7h362.6c18.9,0,30.7-20.3,21.4-36.7L-784.8,70.6
		C-794.2,53.9-818.2,53.9-827.6,70.6z"/>
	<line class="st14" x1="-806.2" y1="158.8" x2="-806.2" y2="314.6"/>
	<circle class="st15" cx="-806.2" cy="365.6" r="16.8"/>
	<line class="st16" x1="-871.1" y1="205.6" x2="-968" y2="385.5"/>
	<line class="st16" x1="-845.9" y1="158.8" x2="-856" y2="177.3"/>
	<line class="st17" x1="-789.4" y1="193" x2="-789.4" y2="321.9"/>
	<circle class="st17" cx="-789.5" cy="365.6" r="8.4"/>
</g>
</svg>
