<?xml version="1.0" encoding="utf-8"?>
<!-- Generator: Adobe Illustrator 23.0.2, SVG Export Plug-In . SVG Version: 6.00 Build 0)  -->
<svg version="1.1" xmlns="http://www.w3.org/2000/svg" xmlns:xlink="http://www.w3.org/1999/xlink" x="0px" y="0px"
	 viewBox="0 0 500 500" style="enable-background:new 0 0 500 500;" xml:space="preserve">
<style type="text/css">
	.st0{fill:#294592;stroke:#2E3192;stroke-width:15;stroke-miterlimit:10;}
	.st1{fill:#FFC400;stroke:#EFB103;stroke-width:12;stroke-linecap:round;stroke-linejoin:round;stroke-miterlimit:10;}
	.st2{fill:#E6E6E6;stroke:#B3B3B3;stroke-width:15;stroke-linecap:round;stroke-linejoin:round;stroke-miterlimit:10;}
	.st3{opacity:0.5;fill:none;stroke:#FFFFFF;stroke-width:15;stroke-linecap:round;stroke-linejoin:round;stroke-miterlimit:10;}
	.st4{opacity:0.3;fill:none;stroke:#FFFFFF;stroke-width:3;stroke-linecap:round;stroke-linejoin:round;stroke-miterlimit:10;}
	.st5{opacity:0.3;fill:none;stroke:#FFFFFF;stroke-width:12;stroke-linecap:round;stroke-linejoin:round;stroke-miterlimit:10;}
	.st6{fill:#FFC33B;stroke:#F8B732;stroke-width:11;stroke-linecap:round;stroke-linejoin:round;stroke-miterlimit:10;}
	.st7{opacity:0.3;fill:none;stroke:#FFFFFF;stroke-width:7;stroke-linecap:round;stroke-linejoin:round;stroke-miterlimit:10;}
	.st8{fill:none;stroke:#999999;stroke-width:15;stroke-linecap:round;stroke-linejoin:round;stroke-miterlimit:10;}
	.st9{fill:#666666;}
	.st10{fill:#808080;}
	.st11{fill:#4D4D4D;}
	.st12{fill:none;stroke:#333333;stroke-width:12;stroke-linecap:round;stroke-linejoin:round;stroke-miterlimit:10;}
	.st13{fill:none;stroke:#666666;stroke-width:12;stroke-linecap:round;stroke-linejoin:round;stroke-miterlimit:10;}
	.st14{fill:#009245;stroke:#008037;stroke-width:12;stroke-linecap:round;stroke-linejoin:round;stroke-miterlimit:10;}
	.st15{opacity:0.3;fill:none;stroke:#F2F2F2;stroke-width:6;stroke-linecap:round;stroke-linejoin:round;stroke-miterlimit:10;}
	.st16{opacity:0.3;fill:none;stroke:#F2F2F2;stroke-width:7;stroke-linecap:round;stroke-linejoin:round;stroke-miterlimit:10;}
	.st17{fill:none;stroke:#294592;stroke-width:36;stroke-linecap:round;stroke-linejoin:round;stroke-miterlimit:10;}
	.st18{fill:none;stroke:#0071BC;stroke-width:36;stroke-linecap:round;stroke-linejoin:round;stroke-miterlimit:10;}
	.st19{opacity:0.6;fill:none;stroke:#FFFFFF;stroke-width:12;stroke-linecap:round;stroke-linejoin:round;stroke-miterlimit:10;}
	.st20{fill:none;stroke:#C1272D;stroke-width:15;stroke-linecap:round;stroke-linejoin:round;stroke-miterlimit:10;}
	.st21{opacity:0.3;fill:none;stroke:#FFFFFF;stroke-width:5;stroke-linecap:round;stroke-linejoin:round;stroke-miterlimit:10;}
	.st22{fill:#FBC33B;stroke:#FBB03B;stroke-width:15;stroke-linecap:round;stroke-linejoin:round;stroke-miterlimit:10;}
	.st23{opacity:0.6;fill:none;stroke:#FFFFFF;stroke-width:7;stroke-linecap:round;stroke-linejoin:round;stroke-miterlimit:10;}
	.st24{fill:#FFC33B;stroke:#F8B732;stroke-width:15;stroke-linecap:round;stroke-linejoin:round;stroke-miterlimit:10;}
	.st25{fill:none;stroke:#F7931E;stroke-width:37;stroke-linecap:round;stroke-linejoin:round;stroke-miterlimit:10;}
	.st26{fill:#F7931E;stroke:#F7931E;stroke-width:11;stroke-linecap:round;stroke-linejoin:round;stroke-miterlimit:10;}
	.st27{opacity:0.6;fill:none;stroke:#FFFFFF;stroke-width:17;stroke-linecap:round;stroke-linejoin:round;stroke-miterlimit:10;}
	.st28{opacity:0.3;fill:none;stroke:#FFFFFF;stroke-width:17;stroke-linecap:round;stroke-linejoin:round;stroke-miterlimit:10;}
</style>
<g id="Argomenti">
	<g id="Ombre_1_">
	</g>
</g>
<g id="Voti_scrutinio">
	<g id="Cappello">
		<path class="st0" d="M460.33,171.1L271.5,81.83c-13.33-7.05-28.67-6.99-41.96,0.17L43.02,172.33c-6.37,3.43-6.09,13.99,0.45,16.96
			l189.1,85.9c11.8,5.36,24.91,5.34,36.7-0.04l190.67-87.07C466.5,185.09,466.74,174.49,460.33,171.1z"/>
		<path class="st0" d="M400.45,236.31v115.57c0,35.12-66.6,63.59-148.75,63.59S102.96,387,102.96,351.89L103.07,238l21.41,8.97
			l107.14,48.27c13.17,5.93,27.79,5.89,40.93-0.12l105.28-48.15l0,0L400.45,236.31z"/>
		<g>
			<line class="st5" x1="81.16" y1="179.93" x2="102.96" y2="189.3"/>
			<line class="st5" x1="127.1" y1="203.66" x2="242.15" y2="253.17"/>
			<line class="st5" x1="127.1" y1="273.19" x2="127.1" y2="288.43"/>
			<path class="st5" d="M223.85,386.45c-42.49-0.92-77.29-18.1-96.75-33.47v-41.25"/>
		</g>
	</g>
	<g id="Nappa">
		<path class="st6" d="M449.3,361.93l-8.92,4.44c-10.92,5.44-23.1-3.81-23.1-17.55V220.54l-161.47-38.3l0.86-5.22l165.5,39.26
			l-0.23,1.4c0.48,0.38,0.87,0.98,1.08,1.79l32.99,125.8C457.77,351.98,454.88,359.15,449.3,361.93z"/>
		<g id="Ombre_Nappa_1_">
			<line class="st7" x1="430.76" y1="304.53" x2="432.56" y2="353.41"/>
			<line class="st7" x1="429.89" y1="284.42" x2="429.89" y2="289.38"/>
		</g>
	</g>
</g>
<g id="Compiti">
	<g id="Foglio">
	</g>
	<g id="Penna">
		<g id="ombre">
		</g>
	</g>
</g>
<g id="Voti_giornalieri">
	<g id="Voto">
		<g id="Ombre">
		</g>
	</g>
</g>
<g id="Promemoria">
	<g id="Base">
	</g>
	<g id="Scritte">
		<g id="O">
		</g>
	</g>
	<g id="Maniglia">
	</g>
</g>
<g id="Assenze">
</g>
</svg>
