<svg xmlns="http://www.w3.org/2000/svg" width="386.14" height="366.28" viewBox="0 0 386.14 366.28">
  <g id="Compiti" transform="translate(-78.37 -62.89)" opacity="0.21">
    <g id="Foglio">
      <path id="Path_9" data-name="Path 9" d="M332.97,429.17H132.1a53.89,53.89,0,0,1-53.73-53.73V116.62A53.89,53.89,0,0,1,132.1,62.89H332.97a53.89,53.89,0,0,1,53.73,53.73V375.44A53.89,53.89,0,0,1,332.97,429.17Z"/>
      <line id="Line_24" data-name="Line 24" x2="161.79" transform="translate(145.99 144.45)" fill="none"/>
      <line id="Line_25" data-name="Line 25" y1="1.42" x2="166.21" transform="translate(143.78 190.47)" fill="none"/>
      <line id="Line_26" data-name="Line 26" x2="142.82" transform="translate(145.99 237.65)" fill="none"/>
      <line id="Line_27" data-name="Line 27" x2="86.54" transform="translate(145.99 285.61)" fill="none"/>
    </g>
    <g id="Penna">
      <g id="Punta">
        <g id="Group_6" data-name="Group 6">
          <g id="Group_5" data-name="Group 5">
            <g id="Group_3" data-name="Group 3">
              <path id="Path_10" data-name="Path 10" d="M263.51,370.46l-8.32-7.09.18-.28,12.95-58.54.49-.14,32.83-9.35.13.05,6.5-7.63,22.05,18.77-6.49,7.63.06.12-3.97,33.91-.4.21L263.8,370.26Zm22.33-34.08.03.03a2.265,2.265,0,1,0-.03-.03Z"/>
              <path id="Path_11" data-name="Path 11" d="M288.78,336.22a2.057,2.057,0,0,1-2.91.19l-.03-.03a2.025,2.025,0,1,1,2.94-.16Z"/>
            </g>
            <g id="Group_4" data-name="Group 4">
              <line id="Line_28" data-name="Line 28" y1="22.14" x2="55.72" transform="translate(263.8 348.12)" fill="#666"/>
              <line id="Line_29" data-name="Line 29" x1="3.97" y2="33.91" transform="translate(319.92 314)" fill="#666"/>
              <line id="Line_30" data-name="Line 30" x1="6.49" y2="7.63" transform="translate(323.83 306.25)" fill="#666"/>
              <line id="Line_31" data-name="Line 31" x2="8.32" y2="7.09" transform="translate(255.19 363.37)" fill="#666"/>
              <line id="Line_32" data-name="Line 32" y1="30.14" x2="26.54" transform="translate(259.3 336.38)" fill="#666"/>
              <path id="Path_12" data-name="Path 12" d="M288.78,336.22a2.057,2.057,0,0,1-2.91.19l-.03-.03a2.025,2.025,0,1,1,2.94-.16Z"/>
              <line id="Line_33" data-name="Line 33" y1="58.54" x2="12.95" transform="translate(255.37 304.55)" fill="#666"/>
              <line id="Line_34" data-name="Line 34" x1="32.83" y2="9.35" transform="translate(268.81 295.06)" fill="#666"/>
              <line id="Line_35" data-name="Line 35" x1="6.5" y2="7.63" transform="translate(301.77 287.48)" fill="#666"/>
              <line id="Line_36" data-name="Line 36" x2="22.05" y2="18.77" transform="translate(308.27 287.48)" fill="#666"/>
            </g>
          </g>
        </g>
        <g id="Group_10" data-name="Group 10">
          <g id="Group_9" data-name="Group 9">
            <g id="Group_7" data-name="Group 7">
              <path id="Path_13" data-name="Path 13" d="M263.51,370.46l-8.32-7.09.18-.28,12.95-58.54.49-.14,32.83-9.35.13.05,6.5-7.63,22.05,18.77-6.49,7.63.06.12-3.97,33.91-.4.21L263.8,370.26Zm22.33-34.08.03.03a2.265,2.265,0,1,0-.03-.03Z"/>
              <path id="Path_14" data-name="Path 14" d="M288.78,336.22a2.057,2.057,0,0,1-2.91.19l-.03-.03a2.025,2.025,0,1,1,2.94-.16Z"/>
            </g>
            <g id="Group_8" data-name="Group 8">
              <line id="Line_37" data-name="Line 37" y1="22.14" x2="55.72" transform="translate(263.8 348.12)" fill="none"/>
              <line id="Line_38" data-name="Line 38" x1="3.97" y2="33.91" transform="translate(319.92 314)" fill="none"/>
              <line id="Line_39" data-name="Line 39" x1="6.49" y2="7.63" transform="translate(323.83 306.25)" fill="none"/>
              <line id="Line_40" data-name="Line 40" x2="8.32" y2="7.09" transform="translate(255.19 363.37)" fill="none"/>
              <line id="Line_41" data-name="Line 41" y1="30.14" x2="26.54" transform="translate(259.3 336.38)" fill="none"/>
              <path id="Path_15" data-name="Path 15" d="M288.78,336.22a2.057,2.057,0,0,1-2.91.19l-.03-.03a2.025,2.025,0,1,1,2.94-.16Z"/>
              <line id="Line_42" data-name="Line 42" y1="58.54" x2="12.95" transform="translate(255.37 304.55)" fill="none"/>
              <line id="Line_43" data-name="Line 43" x1="32.83" y2="9.35" transform="translate(268.81 295.06)" fill="none"/>
              <line id="Line_44" data-name="Line 44" x1="6.5" y2="7.63" transform="translate(301.77 287.48)" fill="none"/>
              <line id="Line_45" data-name="Line 45" x2="22.05" y2="18.77" transform="translate(308.27 287.48)" fill="none"/>
            </g>
          </g>
        </g>
        <g id="Group_14" data-name="Group 14">
          <g id="Group_13" data-name="Group 13">
            <g id="Group_11" data-name="Group 11">
              <path id="Path_16" data-name="Path 16" d="M263.51,370.46l-8.32-7.09.18-.28,12.95-58.54.49-.14,32.83-9.35.13.05,6.5-7.63,22.05,18.77-6.49,7.63.06.12-3.97,33.91-.4.21L263.8,370.26Zm22.33-34.08.03.03a2.265,2.265,0,1,0-.03-.03Z"/>
              <path id="Path_17" data-name="Path 17" d="M288.78,336.22a2.057,2.057,0,0,1-2.91.19l-.03-.03a2.025,2.025,0,1,1,2.94-.16Z"/>
            </g>
            <g id="Group_12" data-name="Group 12">
              <line id="Line_46" data-name="Line 46" y1="22.14" x2="55.72" transform="translate(263.8 348.12)" fill="none"/>
              <line id="Line_47" data-name="Line 47" x1="3.97" y2="33.91" transform="translate(319.92 314)" fill="none"/>
              <line id="Line_48" data-name="Line 48" x1="6.49" y2="7.63" transform="translate(323.83 306.25)" fill="none"/>
              <line id="Line_49" data-name="Line 49" x2="8.32" y2="7.09" transform="translate(255.19 363.37)" fill="none"/>
              <line id="Line_50" data-name="Line 50" y1="30.14" x2="26.54" transform="translate(259.3 336.38)" fill="none"/>
              <path id="Path_18" data-name="Path 18" d="M288.78,336.22a2.057,2.057,0,0,1-2.91.19l-.03-.03a2.025,2.025,0,1,1,2.94-.16Z"/>
              <line id="Line_51" data-name="Line 51" y1="58.54" x2="12.95" transform="translate(255.37 304.55)" fill="none"/>
              <line id="Line_52" data-name="Line 52" x1="32.83" y2="9.35" transform="translate(268.81 295.06)" fill="none"/>
              <line id="Line_53" data-name="Line 53" x1="6.5" y2="7.63" transform="translate(301.77 287.48)" fill="none"/>
              <line id="Line_54" data-name="Line 54" x2="22.05" y2="18.77" transform="translate(308.27 287.48)" fill="none"/>
            </g>
          </g>
        </g>
      </g>
      <g id="Corpo">
        <path id="Path_19" data-name="Path 19" d="M308.27,287.48c28.88-71.4,85.26-133.28,156.24-165.88h0l-.81,3.17c-19.23,74.95-69.25,140.27-133.38,181.48"/>
        <line id="Line_55" data-name="Line 55" x2="20.82" y2="17.71" transform="translate(308.88 288.01)" fill="#009245"/>
      </g>
      <g id="ombre">
        <path id="Path_20" data-name="Path 20" d="M297.42,307.89,277.79,314l-4.24,18.82" opacity="0.3"/>
        <path id="Path_21" data-name="Path 21" d="M338.95,249.63c6.7-13.97,21.16-33.47,40.07-53.22,18.36-19.17,40.17-35.05,54.05-42.84" opacity="0.3"/>
        <path id="Path_22" data-name="Path 22" d="M333.34,259.62a86.1,86.1,0,0,0-7.19,13.55h0" opacity="0.3"/>
      </g>
    </g>
  </g>
</svg>
