<?xml version="1.0" encoding="utf-8"?>
<!-- Generator: Adobe Illustrator 23.0.2, SVG Export Plug-In . SVG Version: 6.00 Build 0)  -->
<svg version="1.1" xmlns="http://www.w3.org/2000/svg" xmlns:xlink="http://www.w3.org/1999/xlink" x="0px" y="0px"
	 viewBox="0 0 500 500" style="enable-background:new 0 0 500 500;" xml:space="preserve">
<style type="text/css">
	.st0{fill:#294592;stroke:#2E3192;stroke-width:15;stroke-miterlimit:10;}
	.st1{fill:#009245;stroke:#008037;stroke-width:12;stroke-linecap:round;stroke-linejoin:round;stroke-miterlimit:10;}
	.st2{fill:#E6E6E6;stroke:#B3B3B3;stroke-width:15;stroke-linecap:round;stroke-linejoin:round;stroke-miterlimit:10;}
	.st3{opacity:0.5;fill:none;stroke:#FFFFFF;stroke-width:15;stroke-linecap:round;stroke-linejoin:round;stroke-miterlimit:10;}
	.st4{opacity:0.3;fill:none;stroke:#FFFFFF;stroke-width:3;stroke-linecap:round;stroke-linejoin:round;stroke-miterlimit:10;}
	.st5{opacity:0.3;fill:none;stroke:#FFFFFF;stroke-width:12;stroke-linecap:round;stroke-linejoin:round;stroke-miterlimit:10;}
	.st6{fill:#FFC33B;stroke:#F8B732;stroke-width:11;stroke-linecap:round;stroke-linejoin:round;stroke-miterlimit:10;}
	.st7{opacity:0.3;fill:none;stroke:#FFFFFF;stroke-width:7;stroke-linecap:round;stroke-linejoin:round;stroke-miterlimit:10;}
	.st8{fill:none;stroke:#999999;stroke-width:15;stroke-linecap:round;stroke-linejoin:round;stroke-miterlimit:10;}
	.st9{fill:#666666;}
	.st10{fill:#808080;}
	.st11{fill:#4D4D4D;}
	.st12{fill:none;stroke:#333333;stroke-width:12;stroke-linecap:round;stroke-linejoin:round;stroke-miterlimit:10;}
	.st13{fill:none;stroke:#666666;stroke-width:12;stroke-linecap:round;stroke-linejoin:round;stroke-miterlimit:10;}
	.st14{opacity:0.3;fill:none;stroke:#F2F2F2;stroke-width:6;stroke-linecap:round;stroke-linejoin:round;stroke-miterlimit:10;}
	.st15{opacity:0.3;fill:none;stroke:#F2F2F2;stroke-width:7;stroke-linecap:round;stroke-linejoin:round;stroke-miterlimit:10;}
	.st16{fill:none;stroke:#0071BC;stroke-width:36;stroke-linecap:round;stroke-linejoin:round;stroke-miterlimit:10;}
	.st17{opacity:0.6;fill:none;stroke:#FFFFFF;stroke-width:12;stroke-linecap:round;stroke-linejoin:round;stroke-miterlimit:10;}
	.st18{fill:none;stroke:#C1272D;stroke-width:15;stroke-linecap:round;stroke-linejoin:round;stroke-miterlimit:10;}
	.st19{opacity:0.3;fill:none;stroke:#FFFFFF;stroke-width:5;stroke-linecap:round;stroke-linejoin:round;stroke-miterlimit:10;}
	.st20{fill:#FBC33B;stroke:#FBB03B;stroke-width:15;stroke-linecap:round;stroke-linejoin:round;stroke-miterlimit:10;}
	.st21{opacity:0.6;fill:none;stroke:#FFFFFF;stroke-width:7;stroke-linecap:round;stroke-linejoin:round;stroke-miterlimit:10;}
	.st22{fill:#FFC33B;stroke:#F8B732;stroke-width:15;stroke-linecap:round;stroke-linejoin:round;stroke-miterlimit:10;}
	.st23{fill:none;stroke:#F7931E;stroke-width:37;stroke-linecap:round;stroke-linejoin:round;stroke-miterlimit:10;}
	.st24{fill:#F7931E;stroke:#F7931E;stroke-width:11;stroke-linecap:round;stroke-linejoin:round;stroke-miterlimit:10;}
	.st25{opacity:0.6;fill:none;stroke:#FFFFFF;stroke-width:17;stroke-linecap:round;stroke-linejoin:round;stroke-miterlimit:10;}
	.st26{opacity:0.3;fill:none;stroke:#FFFFFF;stroke-width:17;stroke-linecap:round;stroke-linejoin:round;stroke-miterlimit:10;}
</style>
<g id="Argomenti">
	<g id="Ombre_1_">
	</g>
</g>
<g id="Voti_scrutinio">
	<g id="Cappello">
	</g>
	<g id="Nappa">
	</g>
</g>
<g id="Compiti">
	<g id="Foglio">
		<path class="st2" d="M332.97,429.17H132.1c-29.55,0-53.73-24.18-53.73-53.73V116.62c0-29.55,24.18-53.73,53.73-53.73h200.87
			c29.55,0,53.73,24.18,53.73,53.73v258.82C386.7,404.99,362.52,429.17,332.97,429.17z"/>
		<line class="st8" x1="145.99" y1="144.45" x2="307.78" y2="144.45"/>
		<line class="st8" x1="143.78" y1="191.89" x2="309.99" y2="190.47"/>
		<line class="st8" x1="145.99" y1="237.65" x2="288.81" y2="237.65"/>
		<line class="st8" x1="145.99" y1="285.61" x2="232.53" y2="285.61"/>
	</g>
	<g id="Penna">
		<g id="Punta">
			<g>
				<g>
					<g>
						<path class="st9" d="M263.51,370.46l-8.32-7.09l0.18-0.28l12.95-58.54l0.49-0.14l32.83-9.35l0.13,0.05l6.5-7.63l22.05,18.77
							l-6.49,7.63l0.06,0.12l-3.97,33.91l-0.4,0.21l-55.72,22.14L263.51,370.46z M285.84,336.38c0.01,0.01,0.02,0.02,0.03,0.03
							c0.88,0.75,2.18,0.67,2.91-0.19c0.72-0.85,0.6-2.15-0.28-2.89c-0.88-0.75-2.18-0.67-2.91,0.18
							C284.88,334.36,284.99,335.63,285.84,336.38z"/>
						<path class="st9" d="M288.78,336.22c-0.73,0.86-2.03,0.94-2.91,0.19c-0.01-0.01-0.02-0.02-0.03-0.03
							c-0.85-0.75-0.96-2.02-0.25-2.87c0.73-0.85,2.03-0.93,2.91-0.18C289.38,334.07,289.5,335.37,288.78,336.22z"/>
					</g>
					<g>
						<line class="st9" x1="263.8" y1="370.26" x2="319.52" y2="348.12"/>
						<line class="st9" x1="323.89" y1="314" x2="319.92" y2="347.91"/>
						<line class="st9" x1="330.32" y1="306.25" x2="323.83" y2="313.88"/>
						<line class="st9" x1="255.19" y1="363.37" x2="263.51" y2="370.46"/>
						<line class="st9" x1="259.3" y1="366.52" x2="285.84" y2="336.38"/>
						<path class="st9" d="M288.78,336.22c-0.73,0.86-2.03,0.94-2.91,0.19c-0.01-0.01-0.02-0.02-0.03-0.03
							c-0.85-0.75-0.96-2.02-0.25-2.87c0.73-0.85,2.03-0.93,2.91-0.18C289.38,334.07,289.5,335.37,288.78,336.22z"/>
						<line class="st9" x1="255.37" y1="363.09" x2="268.32" y2="304.55"/>
						<line class="st9" x1="301.64" y1="295.06" x2="268.81" y2="304.41"/>
						<line class="st9" x1="308.27" y1="287.48" x2="301.77" y2="295.11"/>
						<line class="st9" x1="308.27" y1="287.48" x2="330.32" y2="306.25"/>
					</g>
				</g>
			</g>
			<g>
				<g>
					<g>
						<path class="st10" d="M263.51,370.46l-8.32-7.09l0.18-0.28l12.95-58.54l0.49-0.14l32.83-9.35l0.13,0.05l6.5-7.63l22.05,18.77
							l-6.49,7.63l0.06,0.12l-3.97,33.91l-0.4,0.21l-55.72,22.14L263.51,370.46z M285.84,336.38c0.01,0.01,0.02,0.02,0.03,0.03
							c0.88,0.75,2.18,0.67,2.91-0.19c0.72-0.85,0.6-2.15-0.28-2.89c-0.88-0.75-2.18-0.67-2.91,0.18
							C284.88,334.36,284.99,335.63,285.84,336.38z"/>
						<path class="st11" d="M288.78,336.22c-0.73,0.86-2.03,0.94-2.91,0.19c-0.01-0.01-0.02-0.02-0.03-0.03
							c-0.85-0.75-0.96-2.02-0.25-2.87c0.73-0.85,2.03-0.93,2.91-0.18C289.38,334.07,289.5,335.37,288.78,336.22z"/>
					</g>
					<g>
						<line class="st12" x1="263.8" y1="370.26" x2="319.52" y2="348.12"/>
						<line class="st12" x1="323.89" y1="314" x2="319.92" y2="347.91"/>
						<line class="st12" x1="330.32" y1="306.25" x2="323.83" y2="313.88"/>
						<line class="st12" x1="255.19" y1="363.37" x2="263.51" y2="370.46"/>
						<line class="st12" x1="259.3" y1="366.52" x2="285.84" y2="336.38"/>
						<path class="st12" d="M288.78,336.22c-0.73,0.86-2.03,0.94-2.91,0.19c-0.01-0.01-0.02-0.02-0.03-0.03
							c-0.85-0.75-0.96-2.02-0.25-2.87c0.73-0.85,2.03-0.93,2.91-0.18C289.38,334.07,289.5,335.37,288.78,336.22z"/>
						<line class="st12" x1="255.37" y1="363.09" x2="268.32" y2="304.55"/>
						<line class="st12" x1="301.64" y1="295.06" x2="268.81" y2="304.41"/>
						<line class="st12" x1="308.27" y1="287.48" x2="301.77" y2="295.11"/>
						<line class="st12" x1="308.27" y1="287.48" x2="330.32" y2="306.25"/>
					</g>
				</g>
			</g>
			<g>
				<g>
					<g>
						<path class="st13" d="M263.51,370.46l-8.32-7.09l0.18-0.28l12.95-58.54l0.49-0.14l32.83-9.35l0.13,0.05l6.5-7.63l22.05,18.77
							l-6.49,7.63l0.06,0.12l-3.97,33.91l-0.4,0.21l-55.72,22.14L263.51,370.46z M285.84,336.38c0.01,0.01,0.02,0.02,0.03,0.03
							c0.88,0.75,2.18,0.67,2.91-0.19c0.72-0.85,0.6-2.15-0.28-2.89c-0.88-0.75-2.18-0.67-2.91,0.18
							C284.88,334.36,284.99,335.63,285.84,336.38z"/>
						<path class="st13" d="M288.78,336.22c-0.73,0.86-2.03,0.94-2.91,0.19c-0.01-0.01-0.02-0.02-0.03-0.03
							c-0.85-0.75-0.96-2.02-0.25-2.87c0.73-0.85,2.03-0.93,2.91-0.18C289.38,334.07,289.5,335.37,288.78,336.22z"/>
					</g>
					<g>
						<line class="st13" x1="263.8" y1="370.26" x2="319.52" y2="348.12"/>
						<line class="st13" x1="323.89" y1="314" x2="319.92" y2="347.91"/>
						<line class="st13" x1="330.32" y1="306.25" x2="323.83" y2="313.88"/>
						<line class="st13" x1="255.19" y1="363.37" x2="263.51" y2="370.46"/>
						<line class="st13" x1="259.3" y1="366.52" x2="285.84" y2="336.38"/>
						<path class="st13" d="M288.78,336.22c-0.73,0.86-2.03,0.94-2.91,0.19c-0.01-0.01-0.02-0.02-0.03-0.03
							c-0.85-0.75-0.96-2.02-0.25-2.87c0.73-0.85,2.03-0.93,2.91-0.18C289.38,334.07,289.5,335.37,288.78,336.22z"/>
						<line class="st13" x1="255.37" y1="363.09" x2="268.32" y2="304.55"/>
						<line class="st13" x1="301.64" y1="295.06" x2="268.81" y2="304.41"/>
						<line class="st13" x1="308.27" y1="287.48" x2="301.77" y2="295.11"/>
						<line class="st13" x1="308.27" y1="287.48" x2="330.32" y2="306.25"/>
					</g>
				</g>
			</g>
		</g>
		<g id="Corpo">
			<path class="st1" d="M308.27,287.48c28.88-71.4,85.26-133.28,156.24-165.88l0,0l-0.81,3.17
				c-19.23,74.95-69.25,140.27-133.38,181.48"/>
			<line class="st1" x1="308.88" y1="288.01" x2="329.7" y2="305.72"/>
		</g>
		<g id="ombre">
			<polyline class="st14" points="297.42,307.89 277.79,314 273.55,332.82 			"/>
			<path class="st15" d="M338.95,249.63c6.7-13.97,21.16-33.47,40.07-53.22c18.36-19.17,40.17-35.05,54.05-42.84"/>
			<path class="st15" d="M333.34,259.62c-2.72,4.08-4.87,8.28-7.19,13.55l0,0"/>
		</g>
	</g>
</g>
<g id="Voti_giornalieri">
	<g id="Voto">
		<g id="Ombre">
		</g>
	</g>
</g>
<g id="Promemoria">
	<g id="Base">
	</g>
	<g id="Scritte">
		<g id="O">
		</g>
	</g>
	<g id="Maniglia">
	</g>
</g>
<g id="Assenze">
</g>
</svg>
