<?xml version="1.0" encoding="utf-8"?>
<!-- Generator: Adobe Illustrator 23.0.6, SVG Export Plug-In . SVG Version: 6.00 Build 0)  -->
<svg version="1.1" id="Livello_1" xmlns="http://www.w3.org/2000/svg" xmlns:xlink="http://www.w3.org/1999/xlink" x="0px" y="0px"
	 viewBox="0 0 500 500" style="enable-background:new 0 0 500 500;" xml:space="preserve">
<style type="text/css">
	.st0{fill:#F6C245;}
	.st1{fill:#707071;}
</style>
<g>
	<path class="st0" d="M34.9,474c-2.6,0-3.9-1.6-4.5-2.5c-0.6-0.9-1.4-2.8-0.2-5.1L245.3,42.9c1.3-2.6,3.7-2.9,4.7-2.9
		s3.4,0.3,4.7,2.9l215.1,423.5c1.2,2.3,0.4,4.2-0.2,5.1c-0.6,0.9-1.9,2.5-4.5,2.5H34.9z"/>
	<path class="st1" d="M250,58l205.8,405H44.2L250,58 M250,29c-5.7,0-11.5,3-14.5,8.9L20.4,461.4c-5.5,10.8,2.4,23.6,14.5,23.6h430.3
		c12.1,0,20-12.8,14.5-23.6L264.5,37.9C261.5,32,255.7,29,250,29L250,29z"/>
</g>
<g>
	<circle class="st1" cx="250" cy="397.5" r="26.2"/>
</g>
<polygon class="st1" points="263.7,349 236.3,349 231.2,166.6 268.8,166.6 "/>
</svg>
