<?xml version="1.0" encoding="utf-8"?>
<!-- Generator: Adobe Illustrator 23.0.6, SVG Export Plug-In . SVG Version: 6.00 Build 0)  -->
<svg version="1.1" id="Livello_1" xmlns="http://www.w3.org/2000/svg" xmlns:xlink="http://www.w3.org/1999/xlink" x="0px" y="0px"
	 viewBox="0 0 500 500" style="enable-background:new 0 0 500 500;" xml:space="preserve">
<style type="text/css">
	.st0{fill:#FFFFFF;}
	.st1{fill:#707071;}
	.st2{fill:#DF5F70;}
	.st3{fill:none;stroke:#707071;stroke-width:26;stroke-miterlimit:10;}
	.st4{fill:none;stroke:#707071;stroke-width:15;stroke-miterlimit:10;}
</style>
<g>
	<path class="st0" d="M149.1,482.5c-72.5,0-131.6-59-131.6-131.6V149.1c0-72.5,59-131.6,131.6-131.6h201.9
		c72.5,0,131.6,59,131.6,131.6v201.9c0,72.5-59,131.6-131.6,131.6H149.1z"/>
	<path class="st1" d="M350.9,35c30.5,0,59.1,11.9,80.7,33.4C453.1,90,465,118.6,465,149.1v201.9c0,30.5-11.9,59.1-33.4,80.7
		C410,453.1,381.4,465,350.9,465H149.1c-30.5,0-59.1-11.9-80.7-33.4C46.9,410,35,381.4,35,350.9V149.1c0-30.5,11.9-59.1,33.4-80.7
		S118.6,35,149.1,35H350.9 M350.9,0H149.1C66.7,0,0,66.7,0,149.1v201.9C0,433.3,66.7,500,149.1,500h201.9
		c82.3,0,149.1-66.7,149.1-149.1V149.1C500,66.7,433.3,0,350.9,0L350.9,0z"/>
</g>
<path class="st2" d="M161.2,151.2c2.1,0,4.2,0.2,6.3,0.5c2-0.3,4.1-0.5,6.1-0.5c20.3,0,40.6,0.6,60.9,1.2
	c35.3,1.1,70.7,2.9,106.1,1.5c35.1-1.4,70.1-5.4,105.2-5.4c7.3,0,14.1,1.8,20,5c0-1,0-2.1,0-3.1v0c0-64.3-52.3-116.5-116.9-116.5
	H151.2C86.6,33.9,34.3,86,34.3,150.4v0c0,5.1,0.3,10.1,1,15.1c15.4-0.1,40.1-0.2,56.4,0c0.5-0.6,1-1.1,1.5-1.6
	c7.8-7.8,19.4-12.6,30.5-12.6c6.9,0,13.2,1.6,18.8,4.4C148.3,152.8,154.9,151.2,161.2,151.2z"/>
<g>
	<line class="st3" x1="18.5" y1="160.5" x2="475.3" y2="160.5"/>
</g>
<line class="st4" x1="168.6" y1="163" x2="168.6" y2="486.3"/>
<line class="st4" x1="328.7" y1="154.5" x2="328.7" y2="477.8"/>
<line class="st4" x1="25.2" y1="264" x2="469.5" y2="264"/>
<line class="st4" x1="31" y1="370" x2="475.3" y2="370"/>
</svg>
