<?xml version="1.0" encoding="utf-8"?>
<!-- Generator: Adobe Illustrator 23.0.2, SVG Export Plug-In . SVG Version: 6.00 Build 0)  -->
<svg version="1.1" xmlns="http://www.w3.org/2000/svg" xmlns:xlink="http://www.w3.org/1999/xlink" x="0px" y="0px"
	 viewBox="0 0 500 500" style="enable-background:new 0 0 500 500;" xml:space="preserve">
<style type="text/css">
	.st0{fill:#294592;stroke:#2E3192;stroke-width:15;stroke-miterlimit:10;}
	.st1{fill:#009245;stroke:#008037;stroke-width:12;stroke-linecap:round;stroke-linejoin:round;stroke-miterlimit:10;}
	.st2{fill:#E6E6E6;stroke:#B3B3B3;stroke-width:15;stroke-linecap:round;stroke-linejoin:round;stroke-miterlimit:10;}
	.st3{opacity:0.5;fill:none;stroke:#FFFFFF;stroke-width:15;stroke-linecap:round;stroke-linejoin:round;stroke-miterlimit:10;}
	.st4{opacity:0.3;fill:none;stroke:#FFFFFF;stroke-width:3;stroke-linecap:round;stroke-linejoin:round;stroke-miterlimit:10;}
	.st5{opacity:0.3;fill:none;stroke:#FFFFFF;stroke-width:12;stroke-linecap:round;stroke-linejoin:round;stroke-miterlimit:10;}
	.st6{fill:#FFC33B;stroke:#F8B732;stroke-width:11;stroke-linecap:round;stroke-linejoin:round;stroke-miterlimit:10;}
	.st7{opacity:0.3;fill:none;stroke:#FFFFFF;stroke-width:7;stroke-linecap:round;stroke-linejoin:round;stroke-miterlimit:10;}
	.st8{fill:none;stroke:#999999;stroke-width:15;stroke-linecap:round;stroke-linejoin:round;stroke-miterlimit:10;}
	.st9{fill:#666666;}
	.st10{fill:#808080;}
	.st11{fill:#4D4D4D;}
	.st12{fill:none;stroke:#333333;stroke-width:12;stroke-linecap:round;stroke-linejoin:round;stroke-miterlimit:10;}
	.st13{fill:none;stroke:#666666;stroke-width:12;stroke-linecap:round;stroke-linejoin:round;stroke-miterlimit:10;}
	.st14{opacity:0.3;fill:none;stroke:#F2F2F2;stroke-width:6;stroke-linecap:round;stroke-linejoin:round;stroke-miterlimit:10;}
	.st15{opacity:0.3;fill:none;stroke:#F2F2F2;stroke-width:7;stroke-linecap:round;stroke-linejoin:round;stroke-miterlimit:10;}
	.st16{fill:none;stroke:#0071BC;stroke-width:36;stroke-linecap:round;stroke-linejoin:round;stroke-miterlimit:10;}
	.st17{opacity:0.6;fill:none;stroke:#FFFFFF;stroke-width:12;stroke-linecap:round;stroke-linejoin:round;stroke-miterlimit:10;}
	.st18{fill:none;stroke:#C1272D;stroke-width:15;stroke-linecap:round;stroke-linejoin:round;stroke-miterlimit:10;}
	.st19{opacity:0.3;fill:none;stroke:#FFFFFF;stroke-width:5;stroke-linecap:round;stroke-linejoin:round;stroke-miterlimit:10;}
	.st20{fill:#FBC33B;stroke:#FBB03B;stroke-width:15;stroke-linecap:round;stroke-linejoin:round;stroke-miterlimit:10;}
	.st21{opacity:0.6;fill:none;stroke:#FFFFFF;stroke-width:7;stroke-linecap:round;stroke-linejoin:round;stroke-miterlimit:10;}
	.st22{fill:#FFC33B;stroke:#F8B732;stroke-width:15;stroke-linecap:round;stroke-linejoin:round;stroke-miterlimit:10;}
	.st23{fill:none;stroke:#F7931E;stroke-width:37;stroke-linecap:round;stroke-linejoin:round;stroke-miterlimit:10;}
	.st24{fill:#F7931E;stroke:#F7931E;stroke-width:11;stroke-linecap:round;stroke-linejoin:round;stroke-miterlimit:10;}
	.st25{opacity:0.6;fill:none;stroke:#FFFFFF;stroke-width:17;stroke-linecap:round;stroke-linejoin:round;stroke-miterlimit:10;}
	.st26{opacity:0.3;fill:none;stroke:#FFFFFF;stroke-width:17;stroke-linecap:round;stroke-linejoin:round;stroke-miterlimit:10;}
</style>
<g id="Argomenti">
	<polygon class="st0" points="1260.36,429.87 1260.36,464 1232.79,446.94 1205.21,464 1205.21,429.87 	"/>
	<path class="st1" d="M1417.39,427.76h-237.58c-8.28,0-15-6.72-15-15V76.48c0-8.28,6.72-15,15-15h237.58c23.75,0,43,19.25,43,43
		v280.29C1460.39,408.51,1441.13,427.76,1417.39,427.76z"/>
	<rect x="1164.81" y="182.88" class="st2" width="295.58" height="97.62"/>
	<rect x="1360.03" y="62.58" class="st0" width="38.65" height="366.29"/>
	<g id="Ombre_1_">
		<polyline class="st3" points="1190.17,232.29 1190.17,381.68 1190.17,404.14 1238.34,404.14 1255.17,404.14 		"/>
		<line class="st3" x1="1190.17" y1="206.5" x2="1190.17" y2="160.05"/>
		<polyline class="st4" points="1215.53,437.88 1215.53,445.31 1225.21,440.15 		"/>
	</g>
</g>
<g id="Voti_scrutinio">
	<g id="Cappello">
		<path class="st0" d="M984.39,188.68l-188.83-77.32c-13.33-6.11-28.67-6.05-41.96,0.15l-186.53,78.24
			c-6.37,2.97-6.09,12.12,0.45,14.69l189.1,74.41c11.8,4.64,24.91,4.63,36.7-0.03L984,203.39
			C990.55,200.8,990.79,191.61,984.39,188.68z"/>
		<path class="st0" d="M924.5,245.17v100.11c0,30.42-66.6,55.08-148.75,55.08s-148.74-24.66-148.74-55.08l0.11-98.65l21.41,7.77
			l107.14,41.81c13.17,5.14,27.79,5.1,40.93-0.1l105.28-41.71l0,0L924.5,245.17z"/>
		<g>
			<line class="st5" x1="605.22" y1="196.33" x2="627.01" y2="204.45"/>
			<line class="st5" x1="651.15" y1="216.88" x2="766.21" y2="259.77"/>
			<line class="st5" x1="651.15" y1="277.11" x2="651.15" y2="290.31"/>
			<path class="st5" d="M747.9,375.22c-42.49-0.8-77.29-15.68-96.75-28.99V310.5"/>
		</g>
	</g>
	<g id="Nappa">
		<path class="st6" d="M973.35,353.98l-8.92,3.85c-10.92,4.71-23.1-3.3-23.1-15.2V231.51l-161.47-33.18l0.86-4.52l165.5,34.01
			l-0.23,1.21c0.48,0.33,0.87,0.85,1.08,1.55l32.99,108.97C981.82,345.36,978.93,351.57,973.35,353.98z"/>
		<g id="Ombre_Nappa">
			<line class="st7" x1="954.82" y1="304.26" x2="956.61" y2="346.6"/>
			<line class="st7" x1="953.94" y1="286.84" x2="953.94" y2="291.14"/>
		</g>
	</g>
</g>
<g id="Compiti">
	<g id="Foglio">
		<path class="st2" d="M332.97,429.17H132.1c-29.55,0-53.73-24.18-53.73-53.73V116.62c0-29.55,24.18-53.73,53.73-53.73h200.87
			c29.55,0,53.73,24.18,53.73,53.73v258.82C386.7,404.99,362.52,429.17,332.97,429.17z"/>
		<line class="st8" x1="145.99" y1="144.45" x2="307.78" y2="144.45"/>
		<line class="st8" x1="143.78" y1="191.89" x2="309.99" y2="190.47"/>
		<line class="st8" x1="145.99" y1="237.65" x2="288.81" y2="237.65"/>
		<line class="st8" x1="145.99" y1="285.61" x2="232.53" y2="285.61"/>
	</g>
	<g id="Penna">
		<g id="Punta">
			<g>
				<g>
					<g>
						<path class="st9" d="M263.51,370.46l-8.32-7.09l0.18-0.28l12.95-58.54l0.49-0.14l32.83-9.35l0.13,0.05l6.5-7.63l22.05,18.77
							l-6.49,7.63l0.06,0.12l-3.97,33.91l-0.4,0.21l-55.72,22.14L263.51,370.46z M285.84,336.38c0.01,0.01,0.02,0.02,0.03,0.03
							c0.88,0.75,2.18,0.67,2.91-0.19c0.72-0.85,0.6-2.15-0.28-2.89c-0.88-0.75-2.18-0.67-2.91,0.18
							C284.88,334.36,284.99,335.63,285.84,336.38z"/>
						<path class="st9" d="M288.78,336.22c-0.73,0.86-2.03,0.94-2.91,0.19c-0.01-0.01-0.02-0.02-0.03-0.03
							c-0.85-0.75-0.96-2.02-0.25-2.87c0.73-0.85,2.03-0.93,2.91-0.18C289.38,334.07,289.5,335.37,288.78,336.22z"/>
					</g>
					<g>
						<line class="st9" x1="263.8" y1="370.26" x2="319.52" y2="348.12"/>
						<line class="st9" x1="323.89" y1="314" x2="319.92" y2="347.91"/>
						<line class="st9" x1="330.32" y1="306.25" x2="323.83" y2="313.88"/>
						<line class="st9" x1="255.19" y1="363.37" x2="263.51" y2="370.46"/>
						<line class="st9" x1="259.3" y1="366.52" x2="285.84" y2="336.38"/>
						<path class="st9" d="M288.78,336.22c-0.73,0.86-2.03,0.94-2.91,0.19c-0.01-0.01-0.02-0.02-0.03-0.03
							c-0.85-0.75-0.96-2.02-0.25-2.87c0.73-0.85,2.03-0.93,2.91-0.18C289.38,334.07,289.5,335.37,288.78,336.22z"/>
						<line class="st9" x1="255.37" y1="363.09" x2="268.32" y2="304.55"/>
						<line class="st9" x1="301.64" y1="295.06" x2="268.81" y2="304.41"/>
						<line class="st9" x1="308.27" y1="287.48" x2="301.77" y2="295.11"/>
						<line class="st9" x1="308.27" y1="287.48" x2="330.32" y2="306.25"/>
					</g>
				</g>
			</g>
			<g>
				<g>
					<g>
						<path class="st10" d="M263.51,370.46l-8.32-7.09l0.18-0.28l12.95-58.54l0.49-0.14l32.83-9.35l0.13,0.05l6.5-7.63l22.05,18.77
							l-6.49,7.63l0.06,0.12l-3.97,33.91l-0.4,0.21l-55.72,22.14L263.51,370.46z M285.84,336.38c0.01,0.01,0.02,0.02,0.03,0.03
							c0.88,0.75,2.18,0.67,2.91-0.19c0.72-0.85,0.6-2.15-0.28-2.89c-0.88-0.75-2.18-0.67-2.91,0.18
							C284.88,334.36,284.99,335.63,285.84,336.38z"/>
						<path class="st11" d="M288.78,336.22c-0.73,0.86-2.03,0.94-2.91,0.19c-0.01-0.01-0.02-0.02-0.03-0.03
							c-0.85-0.75-0.96-2.02-0.25-2.87c0.73-0.85,2.03-0.93,2.91-0.18C289.38,334.07,289.5,335.37,288.78,336.22z"/>
					</g>
					<g>
						<line class="st12" x1="263.8" y1="370.26" x2="319.52" y2="348.12"/>
						<line class="st12" x1="323.89" y1="314" x2="319.92" y2="347.91"/>
						<line class="st12" x1="330.32" y1="306.25" x2="323.83" y2="313.88"/>
						<line class="st12" x1="255.19" y1="363.37" x2="263.51" y2="370.46"/>
						<line class="st12" x1="259.3" y1="366.52" x2="285.84" y2="336.38"/>
						<path class="st12" d="M288.78,336.22c-0.73,0.86-2.03,0.94-2.91,0.19c-0.01-0.01-0.02-0.02-0.03-0.03
							c-0.85-0.75-0.96-2.02-0.25-2.87c0.73-0.85,2.03-0.93,2.91-0.18C289.38,334.07,289.5,335.37,288.78,336.22z"/>
						<line class="st12" x1="255.37" y1="363.09" x2="268.32" y2="304.55"/>
						<line class="st12" x1="301.64" y1="295.06" x2="268.81" y2="304.41"/>
						<line class="st12" x1="308.27" y1="287.48" x2="301.77" y2="295.11"/>
						<line class="st12" x1="308.27" y1="287.48" x2="330.32" y2="306.25"/>
					</g>
				</g>
			</g>
			<g>
				<g>
					<g>
						<path class="st13" d="M263.51,370.46l-8.32-7.09l0.18-0.28l12.95-58.54l0.49-0.14l32.83-9.35l0.13,0.05l6.5-7.63l22.05,18.77
							l-6.49,7.63l0.06,0.12l-3.97,33.91l-0.4,0.21l-55.72,22.14L263.51,370.46z M285.84,336.38c0.01,0.01,0.02,0.02,0.03,0.03
							c0.88,0.75,2.18,0.67,2.91-0.19c0.72-0.85,0.6-2.15-0.28-2.89c-0.88-0.75-2.18-0.67-2.91,0.18
							C284.88,334.36,284.99,335.63,285.84,336.38z"/>
						<path class="st13" d="M288.78,336.22c-0.73,0.86-2.03,0.94-2.91,0.19c-0.01-0.01-0.02-0.02-0.03-0.03
							c-0.85-0.75-0.96-2.02-0.25-2.87c0.73-0.85,2.03-0.93,2.91-0.18C289.38,334.07,289.5,335.37,288.78,336.22z"/>
					</g>
					<g>
						<line class="st13" x1="263.8" y1="370.26" x2="319.52" y2="348.12"/>
						<line class="st13" x1="323.89" y1="314" x2="319.92" y2="347.91"/>
						<line class="st13" x1="330.32" y1="306.25" x2="323.83" y2="313.88"/>
						<line class="st13" x1="255.19" y1="363.37" x2="263.51" y2="370.46"/>
						<line class="st13" x1="259.3" y1="366.52" x2="285.84" y2="336.38"/>
						<path class="st13" d="M288.78,336.22c-0.73,0.86-2.03,0.94-2.91,0.19c-0.01-0.01-0.02-0.02-0.03-0.03
							c-0.85-0.75-0.96-2.02-0.25-2.87c0.73-0.85,2.03-0.93,2.91-0.18C289.38,334.07,289.5,335.37,288.78,336.22z"/>
						<line class="st13" x1="255.37" y1="363.09" x2="268.32" y2="304.55"/>
						<line class="st13" x1="301.64" y1="295.06" x2="268.81" y2="304.41"/>
						<line class="st13" x1="308.27" y1="287.48" x2="301.77" y2="295.11"/>
						<line class="st13" x1="308.27" y1="287.48" x2="330.32" y2="306.25"/>
					</g>
				</g>
			</g>
		</g>
		<g id="Corpo">
			<path class="st1" d="M308.27,287.48c28.88-71.4,85.26-133.28,156.24-165.88l0,0l-0.81,3.17
				c-19.23,74.95-69.25,140.27-133.38,181.48"/>
			<line class="st1" x1="308.88" y1="288.01" x2="329.7" y2="305.72"/>
		</g>
		<g id="ombre">
			<polyline class="st14" points="297.42,307.89 277.79,314 273.55,332.82 			"/>
			<path class="st15" d="M338.95,249.63c6.7-13.97,21.16-33.47,40.07-53.22c18.36-19.17,40.17-35.05,54.05-42.84"/>
			<path class="st15" d="M333.34,259.62c-2.72,4.08-4.87,8.28-7.19,13.55l0,0"/>
		</g>
	</g>
</g>
<g id="Voti_giornalieri">
	<g id="Voto">
		<g>
			<path class="st16" d="M1359.56-375.74c4.18,29.36,16.52,57.31,35.01,79.3"/>
			<path class="st16" d="M1342.33-321.49c22.14-15.96,44.93-30.89,68.27-44.73"/>
		</g>
		<g>
			<path class="st16" d="M1228.76-228.31c-0.64-8.01-3.99-20.02,2.27-26.25c19.59-19.49,42.07-35.58,66.32-47.46"/>
			<path class="st16" d="M1236.39-153.54c-7.75-71.4-14.19-142.96-19.33-214.64c6.55,0.85,11.37,6.8,15.53,12.34
				c42.43,56.54,81.43,108.5,123.86,165.04c0.22-4.16,0,0,0,0"/>
		</g>
		<path class="st16" d="M1322.56-468.46c-53.85,23.38-105.22,55.75-143.66,101.7c-38.45,45.95-62.97,106.64-58.85,167.54
			c1.61,23.78,7.89,47.99,22.52,66.21c21.2,26.4,56.67,35.97,89.57,34.01c45.02-2.68,87.46-23.89,124.42-51.05
			c54.22-39.84,99.93-94.55,122.5-159.78c12.39-35.81,16-80.3-8.94-107.91c-20.72-22.93-54.04-26.42-84.19-25.96"/>
		<path class="st16" d="M1323.02-465.3c-53.57,22.92-104.67,54.66-142.91,99.71s-62.62,104.58-58.5,164.31
			c1.61,23.32,7.86,47.07,22.43,64.95c21.1,25.9,56.39,35.29,89.12,33.38c44.8-2.62,87.01-23.41,123.78-50.03
			c53.93-39.06,99.39-92.71,121.83-156.68c12.32-35.12,15.9-78.76-8.93-105.85c-20.62-22.5-53.77-25.93-83.77-25.48"/>
		<g id="Ombre">
			<line class="st17" x1="1219.72" y1="-265.63" x2="1227.29" y2="-170.72"/>
			<line class="st17" x1="1214.29" y1="-338.57" x2="1218.71" y2="-296.7"/>
			<path class="st17" d="M1152.25-141.29c37.96,41.6,99.02,28.78,102.45,28"/>
			<path class="st17" d="M1130.46-194.5c-0.07,5.59,0.58,16.83,7.23,28.45c0.82,1.44,2.09,3.66,3.89,6.19"/>
			<polyline class="st17" points="1380.27,-298.96 1363.37,-324.01 1352.07,-317.1 			"/>
		</g>
	</g>
</g>
<g id="Promemoria">
	<g id="Base">
		<path class="st2" d="M832.21-455.02h82.84c6.6,0,12,4.98,12,11.06v341.38c0,6.08-5.4,11.06-12,11.06h-276.8
			c-6.6,0-12-4.98-12-11.06v-341.38c0-6.08,5.4-11.06,12-11.06h77.16"/>
	</g>
	<g id="Scritte">
		<g id="O">
			<circle class="st8" cx="678.75" cy="-372.86" r="20"/>
			<circle class="st8" cx="678.75" cy="-303.31" r="20"/>
			<circle class="st8" cx="678.75" cy="-233.77" r="20"/>
			<circle class="st8" cx="678.75" cy="-164.22" r="20"/>
		</g>
		<line class="st8" x1="731.57" y1="-369.46" x2="894.57" y2="-369.46"/>
		<line class="st8" x1="729.68" y1="-298.34" x2="892.68" y2="-298.34"/>
		<line class="st8" x1="729.68" y1="-233.77" x2="892.68" y2="-233.77"/>
		<line class="st8" x1="729.68" y1="-164.22" x2="892.68" y2="-164.22"/>
		<polyline class="st18" points="663.36,-388.98 680.63,-369.46 707.31,-408.5 		"/>
		<polyline class="st18" points="663.36,-317.85 680.63,-298.34 707.31,-337.37 		"/>
		<line class="st19" x1="663.59" y1="-321.22" x2="670.03" y2="-314.48"/>
		<line class="st19" x1="669.86" y1="-388.47" x2="675.3" y2="-381.94"/>
	</g>
	<g id="Maniglia">
		<path class="st20" d="M816.72-434.66H729.6c-6.6,0-12-5.4-12-12v-16.73c0-6.6,5.4-12,12-12h87.11c6.6,0,12,5.4,12,12v16.73
			C828.72-440.06,823.32-434.66,816.72-434.66z"/>
		<path class="st20" d="M747.19-476.63c2.86-14.23,13.35-24.79,25.85-24.79c12.86,0,23.6,11.17,26.08,26.03"/>
		<polyline class="st21" points="731.1,-461.25 731.1,-448.93 773.16,-448.15 		"/>
		<path class="st21" d="M771.63-489.58c-2.11,0.09-4.05,1.32-5.46,2.89c-1.41,1.58-2.37,3.49-3.32,5.38"/>
	</g>
</g>
<g id="Assenze">
	<path class="st22" d="M228.57-459.7L47.29-139.26c-9.29,16.41,2.57,36.74,21.43,36.74h362.55c18.86,0,30.71-20.33,21.43-36.74
		L271.43-459.7C262-476.36,238-476.36,228.57-459.7z"/>
	<line class="st23" x1="250" y1="-371.46" x2="250" y2="-215.66"/>
	<circle class="st24" cx="250" cy="-164.65" r="16.81"/>
	<line class="st25" x1="185.09" y1="-324.69" x2="88.18" y2="-144.8"/>
	<line class="st25" x1="210.28" y1="-371.46" x2="200.19" y2="-352.96"/>
	<line class="st26" x1="266.81" y1="-337.27" x2="266.81" y2="-208.37"/>
	<circle class="st26" cx="266.75" cy="-164.65" r="8.41"/>
	<g>
	</g>
	<g>
	</g>
	<g>
	</g>
	<g>
	</g>
	<g>
	</g>
</g>
</svg>
