<?xml version="1.0" encoding="utf-8"?>
<!-- Generator: Adobe Illustrator 23.0.6, SVG Export Plug-In . SVG Version: 6.00 Build 0)  -->
<svg version="1.1" id="Livello_1" xmlns="http://www.w3.org/2000/svg" xmlns:xlink="http://www.w3.org/1999/xlink" x="0px" y="0px"
	 viewBox="0 0 500 500" style="enable-background:new 0 0 500 500;" xml:space="preserve">
<style type="text/css">
	.st0{fill:none;stroke:#FFFFFF;stroke-width:20;stroke-miterlimit:10;}
	.st1{fill:#FFFFFF;}
	.st2{fill:none;stroke:#FFFFFF;stroke-width:13;stroke-miterlimit:10;}
</style>
<g id="XMLID_1_">
	<circle class="st0" cx="250" cy="250" r="205.4"/>
</g>
<g>
	<g>
		<path class="st1" d="M285.9,241.7c1.7,8.1-1.1,17.1-3,25c-1.9,7.8-4.2,15.5-6.6,23.2c-5.2,16.3-11,32.3-15.5,48.8
			c-3.6,13.3-8,31.2,9.6,36.1c14.6,4,30.9,0.9,43.4-7.3c-3.7-2.8-7.3-5.6-11-8.5c-0.2,1.1-0.3,2.2-0.5,3.3c-0.6,4,1,8,5.2,9.2
			c3.5,1,8.6-1.2,9.2-5.2c0.2-1.1,0.3-2.2,0.5-3.3c0.9-5.9-5-12.4-11-8.5c-5.2,3.4-10.9,5.8-17.1,6.7c-3.1,0.4-6.5,0.4-9.6,0.1
			c-1.7-0.2-5.8-0.3-7-1.7c-2.4-2.7,1.6-12.3,2.3-15.1c1.9-7.2,4.1-14.3,6.4-21.4c4.5-13.9,9.4-27.6,13.4-41.6
			c3.9-13.7,9-29.4,5.9-43.7C298.3,228.3,283.8,232.3,285.9,241.7L285.9,241.7z"/>
	</g>
</g>
<g>
	<g>
		<path class="st1" d="M300.7,370.6c-1.9,5.7-4,11.7-7.7,16.5c-3.7,4.9-8.6,7-14.3,8.6c-11.8,3.4-24.6,4.6-36.6,1.6
			c-12.2-3-22.9-10.2-28.6-21.6c-5.9-11.7-5.6-26,1-37.2c4.9-8.4-8.1-15.9-13-7.6c-14.1,24.2-6.5,55.5,16,71.6
			c20.2,14.5,49.2,14.1,71.7,5.5c14.5-5.6,21.3-19.6,25.9-33.5C318.2,365.4,303.7,361.4,300.7,370.6L300.7,370.6z"/>
	</g>
</g>
<g>
	<g>
		<path class="st1" d="M303,361.8c-0.4,1.7-0.9,3.5-1.3,5.2c-1,3.8,1.3,8.3,5.2,9.2c3.9,0.9,8.2-1.2,9.2-5.2
			c0.5-1.7,0.9-3.5,1.3-5.2c0.5-1.9,0.3-4.1-0.8-5.8c-0.9-1.6-2.7-3-4.5-3.4C308.3,355.6,304,357.7,303,361.8L303,361.8z"/>
	</g>
</g>
<g>
	<g>
		<path class="st1" d="M213.9,337.2c13.4-33,22.8-67.5,27.8-102.7c0.6-4-1-8-5.2-9.2c-3.5-1-8.6,1.2-9.2,5.2
			c-5.1,35.2-14.4,69.7-27.8,102.7c-1.5,3.8,1.7,8.2,5.2,9.2C208.9,343.6,212.4,340.9,213.9,337.2L213.9,337.2z"/>
	</g>
</g>
<g>
	<g>
		<path class="st1" d="M241.2,234.4c3.2-13.1-5.3-25.1-17.3-29.9c-14-5.7-29.1,0.6-42,6.3c3.7,2.8,7.3,5.6,11,8.5
			c2-10.5,10-17.3,19.4-21.6c10.1-4.6,23.2-8.6,34.4-8c23.2,1.2,37.5,23.7,38.7,45c0.6,9.6,15.6,9.7,15,0
			c-1.7-29.3-21.1-57.3-52.1-59.8c-7.6-0.6-15.2,0.9-22.5,2.8c-7.5,1.9-14.9,4.1-21.8,7.5c-12.2,5.9-22.8,16.5-25.5,30.2
			c-1.3,6.8,5,11.1,11,8.5c8-3.5,17.5-7.9,26.4-6.1c5.6,1.1,12.4,6.5,10.8,12.8C224.5,239.8,238.9,243.8,241.2,234.4L241.2,234.4z"
			/>
	</g>
</g>
<g>
	<g>
		<path class="st1" d="M292.6,244.3c9.7,0,9.7-15,0-15C283,229.3,282.9,244.3,292.6,244.3L292.6,244.3z"/>
	</g>
</g>
<circle class="st2" cx="251.2" cy="122.9" r="35.3"/>
</svg>
