<?xml version="1.0" encoding="utf-8"?>
<!-- Generator: Adobe Illustrator 23.0.6, SVG Export Plug-In . SVG Version: 6.00 Build 0)  -->
<svg version="1.1" id="Livello_1" xmlns="http://www.w3.org/2000/svg" xmlns:xlink="http://www.w3.org/1999/xlink" x="0px" y="0px"
	 viewBox="0 0 500 500" style="enable-background:new 0 0 500 500;" xml:space="preserve">
<style type="text/css">
	.st0{fill:#DF5F70;}
	.st1{fill:#707071;}
	.st2{fill:#FFFFFF;}
</style>
<g>
	<path class="st0" d="M169.1,481.5c-65.2,0-118.2-53-118.2-118.2V136.7c0-65.2,53-118.2,118.2-118.2h161.8
		c65.2,0,118.2,53,118.2,118.2v226.7c0,65.2-53,118.2-118.2,118.2H169.1z"/>
	<path class="st1" d="M330.9,37c55,0,99.7,44.7,99.7,99.7v226.7c0,55-44.7,99.7-99.7,99.7H169.1c-55,0-99.7-44.7-99.7-99.7V136.7
		c0-55,44.7-99.7,99.7-99.7H330.9 M330.9,0H169.1C93.6,0,32.4,61.2,32.4,136.7v226.7c0,75.5,61.2,136.7,136.7,136.7h161.8
		c75.5,0,136.7-61.2,136.7-136.7V136.7C467.6,61.2,406.4,0,330.9,0L330.9,0z"/>
</g>
<g>
	<path class="st2" d="M170.3,216c-27.4,0-49.6-22.3-49.6-49.6V149c0-27.4,22.3-49.6,49.6-49.6h159.4c27.4,0,49.6,22.3,49.6,49.6
		v17.4c0,27.4-22.3,49.6-49.6,49.6H170.3z"/>
	<path class="st1" d="M329.7,106.9c23.2,0,42.1,18.9,42.1,42.1v17.4c0,23.2-18.9,42.1-42.1,42.1H170.3c-23.2,0-42.1-18.9-42.1-42.1
		V149c0-23.2,18.9-42.1,42.1-42.1H329.7 M329.7,91.9H170.3c-31.5,0-57.1,25.6-57.1,57.1v17.4c0,31.5,25.6,57.1,57.1,57.1h159.4
		c31.5,0,57.1-25.6,57.1-57.1V149C386.8,117.5,361.2,91.9,329.7,91.9L329.7,91.9z"/>
</g>
<g>
	
		<ellipse transform="matrix(0.1602 -0.9871 0.9871 0.1602 -215.9397 468.5704)" class="st2" cx="167.4" cy="361.2" rx="46.7" ry="46.7"/>
	<path class="st1" d="M167.4,322c21.6,0,39.2,17.6,39.2,39.2s-17.6,39.2-39.2,39.2s-39.2-17.6-39.2-39.2S145.8,322,167.4,322
		 M167.4,307c-29.9,0-54.2,24.3-54.2,54.2s24.3,54.2,54.2,54.2s54.2-24.3,54.2-54.2S197.3,307,167.4,307L167.4,307z"/>
</g>
<g>
	
		<ellipse transform="matrix(0.1602 -0.9871 0.9871 0.1602 -77.2005 631.6387)" class="st2" cx="332.6" cy="361.2" rx="46.7" ry="46.7"/>
	<path class="st1" d="M332.6,322c21.6,0,39.2,17.6,39.2,39.2s-17.6,39.2-39.2,39.2c-21.6,0-39.2-17.6-39.2-39.2S311,322,332.6,322
		 M332.6,307c-29.9,0-54.2,24.3-54.2,54.2s24.3,54.2,54.2,54.2c29.9,0,54.2-24.3,54.2-54.2S362.5,307,332.6,307L332.6,307z"/>
</g>
</svg>
