<?xml version="1.0" encoding="utf-8"?>
<!-- Generator: Adobe Illustrator 23.0.2, SVG Export Plug-In . SVG Version: 6.00 Build 0)  -->
<svg version="1.1" xmlns="http://www.w3.org/2000/svg" xmlns:xlink="http://www.w3.org/1999/xlink" x="0px" y="0px"
	 viewBox="0 0 500 500" style="enable-background:new 0 0 500 500;" xml:space="preserve">
<style type="text/css">
	.st0{fill:#294592;stroke:#2E3192;stroke-width:15;stroke-miterlimit:10;}
	.st1{fill:#FFC33B;stroke:#F8B732;stroke-width:15;stroke-linecap:round;stroke-linejoin:round;stroke-miterlimit:10;}
	.st2{fill:#E6E6E6;stroke:#B3B3B3;stroke-width:15;stroke-linecap:round;stroke-linejoin:round;stroke-miterlimit:10;}
	.st3{opacity:0.5;fill:none;stroke:#FFFFFF;stroke-width:15;stroke-linecap:round;stroke-linejoin:round;stroke-miterlimit:10;}
	.st4{opacity:0.3;fill:none;stroke:#FFFFFF;stroke-width:3;stroke-linecap:round;stroke-linejoin:round;stroke-miterlimit:10;}
	.st5{opacity:0.3;fill:none;stroke:#FFFFFF;stroke-width:12;stroke-linecap:round;stroke-linejoin:round;stroke-miterlimit:10;}
	.st6{fill:#FFC33B;stroke:#F8B732;stroke-width:11;stroke-linecap:round;stroke-linejoin:round;stroke-miterlimit:10;}
	.st7{opacity:0.3;fill:none;stroke:#FFFFFF;stroke-width:7;stroke-linecap:round;stroke-linejoin:round;stroke-miterlimit:10;}
	.st8{fill:none;stroke:#999999;stroke-width:15;stroke-linecap:round;stroke-linejoin:round;stroke-miterlimit:10;}
	.st9{fill:#666666;}
	.st10{fill:#808080;}
	.st11{fill:#4D4D4D;}
	.st12{fill:none;stroke:#333333;stroke-width:12;stroke-linecap:round;stroke-linejoin:round;stroke-miterlimit:10;}
	.st13{fill:none;stroke:#666666;stroke-width:12;stroke-linecap:round;stroke-linejoin:round;stroke-miterlimit:10;}
	.st14{fill:#009245;stroke:#008037;stroke-width:12;stroke-linecap:round;stroke-linejoin:round;stroke-miterlimit:10;}
	.st15{opacity:0.3;fill:none;stroke:#F2F2F2;stroke-width:6;stroke-linecap:round;stroke-linejoin:round;stroke-miterlimit:10;}
	.st16{opacity:0.3;fill:none;stroke:#F2F2F2;stroke-width:7;stroke-linecap:round;stroke-linejoin:round;stroke-miterlimit:10;}
	.st17{fill:none;stroke:#B3B3B3;stroke-width:52;stroke-linecap:round;stroke-linejoin:round;stroke-miterlimit:10;}
	.st18{fill:none;stroke:#E6E6E6;stroke-width:27;stroke-linecap:round;stroke-linejoin:round;stroke-miterlimit:10;}
	.st19{opacity:0.6;fill:none;stroke:#FFFFFF;stroke-width:12;stroke-linecap:round;stroke-linejoin:round;stroke-miterlimit:10;}
	.st20{fill:none;stroke:#C1272D;stroke-width:15;stroke-linecap:round;stroke-linejoin:round;stroke-miterlimit:10;}
	.st21{opacity:0.3;fill:none;stroke:#FFFFFF;stroke-width:5;stroke-linecap:round;stroke-linejoin:round;stroke-miterlimit:10;}
	.st22{fill:#FBC33B;stroke:#FBB03B;stroke-width:15;stroke-linecap:round;stroke-linejoin:round;stroke-miterlimit:10;}
	.st23{opacity:0.6;fill:none;stroke:#FFFFFF;stroke-width:7;stroke-linecap:round;stroke-linejoin:round;stroke-miterlimit:10;}
	.st24{opacity:0.5;fill:none;stroke:#FFFFFF;stroke-width:9;stroke-linecap:round;stroke-linejoin:round;stroke-miterlimit:10;}
	.st25{opacity:0.5;fill:none;stroke:#FFFFFF;stroke-width:6;stroke-linecap:round;stroke-linejoin:round;stroke-miterlimit:10;}
	.st26{opacity:0.3;fill:none;stroke:#FFFFFF;stroke-width:17;stroke-linecap:round;stroke-linejoin:round;stroke-miterlimit:10;}
	.st27{fill:#F7931E;stroke:#F7931E;stroke-width:32;stroke-linecap:round;stroke-linejoin:round;stroke-miterlimit:10;}
	.st28{fill:#F7931E;stroke:#F7931E;stroke-width:11;stroke-linecap:round;stroke-linejoin:round;stroke-miterlimit:10;}
	.st29{opacity:0.6;fill:none;stroke:#FFFFFF;stroke-width:17;stroke-linecap:round;stroke-linejoin:round;stroke-miterlimit:10;}
	.st30{fill:#FFF1B4;stroke:#F8B732;stroke-width:15;stroke-linecap:round;stroke-linejoin:round;stroke-miterlimit:10;}
	.st31{fill:#E6E6E6;stroke:#B3B3B3;stroke-width:6;stroke-linecap:round;stroke-linejoin:round;stroke-miterlimit:10;}
	.st32{fill:#C8322E;stroke:#C90000;stroke-width:8;stroke-linecap:round;stroke-linejoin:round;stroke-miterlimit:10;}
</style>
<g id="Argomenti">
	<polygon class="st0" points="204.15,960.14 204.15,994.27 176.57,977.21 148.99,994.27 148.99,960.14 	"/>
	<path class="st1" d="M361.17,958.03H123.6c-8.28,0-15-6.72-15-15V606.75c0-8.28,6.72-15,15-15h237.58c23.75,0,43,19.25,43,43
		v280.29C404.17,938.78,384.92,958.03,361.17,958.03z"/>
	<rect x="108.6" y="713.15" class="st2" width="295.58" height="97.62"/>
	<rect x="303.82" y="592.85" class="st0" width="38.65" height="366.29"/>
	<g id="Ombre_1_">
		<polyline class="st3" points="133.96,762.56 133.96,911.95 133.96,934.41 182.13,934.41 198.95,934.41 		"/>
		<line class="st3" x1="133.96" y1="736.77" x2="133.96" y2="690.32"/>
		<polyline class="st4" points="159.31,968.15 159.31,975.58 168.99,970.43 		"/>
	</g>
</g>
<g id="Voti_scrutinio">
	<g id="Cappello">
		<path class="st0" d="M-71.83,718.95l-188.83-77.32c-13.33-6.11-28.67-6.05-41.96,0.15l-186.53,78.24
			c-6.37,2.97-6.09,12.12,0.45,14.69l189.1,74.41c11.8,4.64,24.91,4.63,36.7-0.03l190.67-75.42
			C-65.66,731.07-65.42,721.89-71.83,718.95z"/>
		<path class="st0" d="M-131.72,775.44v100.11c0,30.42-66.6,55.08-148.75,55.08s-148.74-24.66-148.74-55.08l0.11-98.65l21.41,7.77
			l107.14,41.81c13.17,5.14,27.79,5.1,40.93-0.1l105.28-41.71l0,0L-131.72,775.44z"/>
		<g>
			<line class="st5" x1="-451" y1="726.6" x2="-429.21" y2="734.72"/>
			<line class="st5" x1="-405.06" y1="747.15" x2="-290.01" y2="790.04"/>
			<line class="st5" x1="-405.06" y1="807.38" x2="-405.06" y2="820.58"/>
			<path class="st5" d="M-308.31,905.49c-42.49-0.8-77.29-15.68-96.75-28.99v-35.73"/>
		</g>
	</g>
	<g id="Nappa">
		<path class="st6" d="M-82.87,884.25l-8.92,3.85c-10.92,4.71-23.1-3.3-23.1-15.2V761.78l-161.47-33.18l0.86-4.52l165.5,34.01
			l-0.23,1.21c0.48,0.33,0.87,0.85,1.08,1.55l32.99,108.97C-74.4,875.63-77.29,881.84-82.87,884.25z"/>
		<g id="Ombre_Nappa">
			<line class="st7" x1="-101.4" y1="834.53" x2="-99.6" y2="876.87"/>
			<line class="st7" x1="-102.27" y1="817.11" x2="-102.27" y2="821.41"/>
		</g>
	</g>
</g>
<g id="Compiti">
	<g id="Foglio">
		<path class="st2" d="M-723.25,959.44h-200.87c-29.55,0-53.73-24.18-53.73-53.73V646.89c0-29.55,24.18-53.73,53.73-53.73h200.87
			c29.55,0,53.73,24.18,53.73,53.73v258.82C-669.52,935.26-693.7,959.44-723.25,959.44z"/>
		<line class="st8" x1="-910.23" y1="674.72" x2="-748.43" y2="674.72"/>
		<line class="st8" x1="-912.44" y1="722.16" x2="-746.22" y2="720.74"/>
		<line class="st8" x1="-910.23" y1="767.92" x2="-767.4" y2="767.92"/>
		<line class="st8" x1="-910.23" y1="815.88" x2="-823.68" y2="815.88"/>
	</g>
	<g id="Penna">
		<g id="Punta">
			<g>
				<g>
					<g>
						<path class="st9" d="M-792.71,900.73l-8.32-7.09l0.18-0.28l12.95-58.54l0.49-0.14l32.83-9.35l0.13,0.05l6.5-7.63l22.05,18.77
							l-6.49,7.63l0.06,0.12l-3.97,33.91l-0.4,0.21l-55.72,22.14L-792.71,900.73z M-770.38,866.65c0.01,0.01,0.02,0.02,0.03,0.03
							c0.88,0.75,2.18,0.67,2.91-0.19c0.72-0.85,0.6-2.15-0.28-2.89c-0.88-0.75-2.18-0.67-2.91,0.18
							C-771.34,864.63-771.23,865.9-770.38,866.65z"/>
						<path class="st9" d="M-767.44,866.49c-0.73,0.86-2.03,0.94-2.91,0.19c-0.01-0.01-0.02-0.02-0.03-0.03
							c-0.85-0.75-0.96-2.02-0.25-2.87c0.73-0.85,2.03-0.93,2.91-0.18C-766.84,864.34-766.72,865.64-767.44,866.49z"/>
					</g>
					<g>
						<line class="st9" x1="-792.42" y1="900.53" x2="-736.7" y2="878.39"/>
						<line class="st9" x1="-732.33" y1="844.27" x2="-736.3" y2="878.18"/>
						<line class="st9" x1="-725.9" y1="836.52" x2="-732.39" y2="844.15"/>
						<line class="st9" x1="-801.03" y1="893.64" x2="-792.71" y2="900.73"/>
						<line class="st9" x1="-796.92" y1="896.79" x2="-770.38" y2="866.65"/>
						<path class="st9" d="M-767.44,866.49c-0.73,0.86-2.03,0.94-2.91,0.19c-0.01-0.01-0.02-0.02-0.03-0.03
							c-0.85-0.75-0.96-2.02-0.25-2.87c0.73-0.85,2.03-0.93,2.91-0.18C-766.84,864.34-766.72,865.64-767.44,866.49z"/>
						<line class="st9" x1="-800.85" y1="893.36" x2="-787.9" y2="834.82"/>
						<line class="st9" x1="-754.58" y1="825.33" x2="-787.41" y2="834.68"/>
						<line class="st9" x1="-747.95" y1="817.75" x2="-754.45" y2="825.38"/>
						<line class="st9" x1="-747.95" y1="817.75" x2="-725.9" y2="836.52"/>
					</g>
				</g>
			</g>
			<g>
				<g>
					<g>
						<path class="st10" d="M-792.71,900.73l-8.32-7.09l0.18-0.28l12.95-58.54l0.49-0.14l32.83-9.35l0.13,0.05l6.5-7.63l22.05,18.77
							l-6.49,7.63l0.06,0.12l-3.97,33.91l-0.4,0.21l-55.72,22.14L-792.71,900.73z M-770.38,866.65c0.01,0.01,0.02,0.02,0.03,0.03
							c0.88,0.75,2.18,0.67,2.91-0.19c0.72-0.85,0.6-2.15-0.28-2.89c-0.88-0.75-2.18-0.67-2.91,0.18
							C-771.34,864.63-771.23,865.9-770.38,866.65z"/>
						<path class="st11" d="M-767.44,866.49c-0.73,0.86-2.03,0.94-2.91,0.19c-0.01-0.01-0.02-0.02-0.03-0.03
							c-0.85-0.75-0.96-2.02-0.25-2.87c0.73-0.85,2.03-0.93,2.91-0.18C-766.84,864.34-766.72,865.64-767.44,866.49z"/>
					</g>
					<g>
						<line class="st12" x1="-792.42" y1="900.53" x2="-736.7" y2="878.39"/>
						<line class="st12" x1="-732.33" y1="844.27" x2="-736.3" y2="878.18"/>
						<line class="st12" x1="-725.9" y1="836.52" x2="-732.39" y2="844.15"/>
						<line class="st12" x1="-801.03" y1="893.64" x2="-792.71" y2="900.73"/>
						<line class="st12" x1="-796.92" y1="896.79" x2="-770.38" y2="866.65"/>
						<path class="st12" d="M-767.44,866.49c-0.73,0.86-2.03,0.94-2.91,0.19c-0.01-0.01-0.02-0.02-0.03-0.03
							c-0.85-0.75-0.96-2.02-0.25-2.87c0.73-0.85,2.03-0.93,2.91-0.18C-766.84,864.34-766.72,865.64-767.44,866.49z"/>
						<line class="st12" x1="-800.85" y1="893.36" x2="-787.9" y2="834.82"/>
						<line class="st12" x1="-754.58" y1="825.33" x2="-787.41" y2="834.68"/>
						<line class="st12" x1="-747.95" y1="817.75" x2="-754.45" y2="825.38"/>
						<line class="st12" x1="-747.95" y1="817.75" x2="-725.9" y2="836.52"/>
					</g>
				</g>
			</g>
			<g>
				<g>
					<g>
						<path class="st13" d="M-792.71,900.73l-8.32-7.09l0.18-0.28l12.95-58.54l0.49-0.14l32.83-9.35l0.13,0.05l6.5-7.63l22.05,18.77
							l-6.49,7.63l0.06,0.12l-3.97,33.91l-0.4,0.21l-55.72,22.14L-792.71,900.73z M-770.38,866.65c0.01,0.01,0.02,0.02,0.03,0.03
							c0.88,0.75,2.18,0.67,2.91-0.19c0.72-0.85,0.6-2.15-0.28-2.89c-0.88-0.75-2.18-0.67-2.91,0.18
							C-771.34,864.63-771.23,865.9-770.38,866.65z"/>
						<path class="st13" d="M-767.44,866.49c-0.73,0.86-2.03,0.94-2.91,0.19c-0.01-0.01-0.02-0.02-0.03-0.03
							c-0.85-0.75-0.96-2.02-0.25-2.87c0.73-0.85,2.03-0.93,2.91-0.18C-766.84,864.34-766.72,865.64-767.44,866.49z"/>
					</g>
					<g>
						<line class="st13" x1="-792.42" y1="900.53" x2="-736.7" y2="878.39"/>
						<line class="st13" x1="-732.33" y1="844.27" x2="-736.3" y2="878.18"/>
						<line class="st13" x1="-725.9" y1="836.52" x2="-732.39" y2="844.15"/>
						<line class="st13" x1="-801.03" y1="893.64" x2="-792.71" y2="900.73"/>
						<line class="st13" x1="-796.92" y1="896.79" x2="-770.38" y2="866.65"/>
						<path class="st13" d="M-767.44,866.49c-0.73,0.86-2.03,0.94-2.91,0.19c-0.01-0.01-0.02-0.02-0.03-0.03
							c-0.85-0.75-0.96-2.02-0.25-2.87c0.73-0.85,2.03-0.93,2.91-0.18C-766.84,864.34-766.72,865.64-767.44,866.49z"/>
						<line class="st13" x1="-800.85" y1="893.36" x2="-787.9" y2="834.82"/>
						<line class="st13" x1="-754.58" y1="825.33" x2="-787.41" y2="834.68"/>
						<line class="st13" x1="-747.95" y1="817.75" x2="-754.45" y2="825.38"/>
						<line class="st13" x1="-747.95" y1="817.75" x2="-725.9" y2="836.52"/>
					</g>
				</g>
			</g>
		</g>
		<g id="Corpo">
			<path class="st14" d="M-747.95,817.75c28.88-71.4,85.26-133.28,156.24-165.88l0,0l-0.81,3.17
				c-19.23,74.95-69.25,140.27-133.38,181.48"/>
			<line class="st14" x1="-747.33" y1="818.28" x2="-726.51" y2="836"/>
		</g>
		<g id="ombre">
			<polyline class="st15" points="-758.8,838.16 -778.43,844.27 -782.66,863.09 			"/>
			<path class="st16" d="M-717.26,779.9c6.7-13.97,21.16-33.47,40.07-53.22c18.36-19.17,40.17-35.05,54.05-42.84"/>
			<path class="st16" d="M-722.88,789.89c-2.72,4.08-4.87,8.28-7.19,13.55l0,0"/>
		</g>
	</g>
</g>
<g id="Voti_giornalieri">
	<g id="Voto">
		<g>
			<path class="st17" d="M268.29,61.61c-53.57,22.92-104.67,54.66-142.91,99.71S62.75,265.9,66.88,325.64
				c1.61,23.32,7.86,47.07,22.43,64.95c21.1,25.9,56.39,35.29,89.12,33.38c44.8-2.62,87.01-23.41,123.78-50.03
				c53.93-39.06,99.39-92.71,121.83-156.68c12.32-35.12,15.9-78.76-8.93-105.85c-20.62-22.5-53.77-25.93-83.77-25.48"/>
			<g>
				<path class="st17" d="M172.55,301.97c-0.64-8.01-3.99-20.02,2.27-26.25c19.59-19.49,42.07-35.58,66.32-47.46"/>
				<path class="st17" d="M180.18,376.73c-7.75-71.4-14.19-142.96-19.33-214.64c6.55,0.85,11.37,6.8,15.53,12.34
					c42.43,56.54,81.43,108.5,123.86,165.04c0.22-4.16,0,0,0,0"/>
			</g>
			<g>
				<path class="st17" d="M303.95,156.06c4.18,29.36,16.52,57.31,35.01,79.3"/>
				<path class="st17" d="M286.72,210.31c22.14-15.97,44.93-30.89,68.27-44.73"/>
			</g>
			<g>
				<path class="st18" d="M303.35,154.53c4.18,29.36,16.52,57.31,35.01,79.3"/>
				<path class="st18" d="M286.12,208.78c22.14-15.97,44.93-30.89,68.27-44.73"/>
			</g>
			<g>
				<path class="st18" d="M172.55,301.97c-0.64-8.01-3.99-20.02,2.27-26.25c19.59-19.49,42.07-35.58,66.32-47.46"/>
				<path class="st18" d="M180.18,376.73c-7.75-71.4-14.19-142.96-19.33-214.64c6.55,0.85,11.37,6.8,15.53,12.34
					c42.43,56.54,81.43,108.5,123.86,165.04c0.22-4.16,0,0,0,0"/>
			</g>
			<path class="st18" d="M268.29,61.61c-53.57,22.92-104.67,54.66-142.91,99.71S62.75,265.9,66.88,325.64
				c1.61,23.32,7.86,47.07,22.43,64.95c21.1,25.9,56.39,35.29,89.12,33.38c44.8-2.62,87.01-23.41,123.78-50.03
				c53.93-39.06,99.39-92.71,121.83-156.68c12.32-35.12,15.9-78.76-8.93-105.85c-20.62-22.5-53.77-25.93-83.77-25.48"/>
		</g>
	</g>
	<g id="Ombre">
		<line class="st19" x1="163.5" y1="264.64" x2="171.08" y2="359.55"/>
		<line class="st19" x1="158.08" y1="191.7" x2="162.49" y2="233.57"/>
		<path class="st19" d="M96.03,388.98c37.96,41.6,99.02,28.78,102.45,28"/>
		<path class="st19" d="M74.25,335.77c-0.07,5.59,0.58,16.83,7.23,28.45c0.82,1.44,2.09,3.66,3.89,6.19"/>
		<polyline class="st19" points="327.25,226.16 310.35,201.11 299.05,208.02 		"/>
	</g>
</g>
<g id="Promemoria">
	<g id="Base">
		<path class="st2" d="M-224,75.25h82.84c6.6,0,12,4.98,12,11.06v341.38c0,6.08-5.4,11.06-12,11.06h-276.8c-6.6,0-12-4.98-12-11.06
			V86.31c0-6.08,5.4-11.06,12-11.06h77.16"/>
	</g>
	<g id="Scritte">
		<g id="O">
			<circle class="st8" cx="-377.47" cy="157.41" r="20"/>
			<circle class="st8" cx="-377.47" cy="226.96" r="20"/>
			<circle class="st8" cx="-377.47" cy="296.5" r="20"/>
			<circle class="st8" cx="-377.47" cy="366.05" r="20"/>
		</g>
		<line class="st8" x1="-324.65" y1="160.81" x2="-161.65" y2="160.81"/>
		<line class="st8" x1="-326.53" y1="231.93" x2="-163.53" y2="231.93"/>
		<line class="st8" x1="-326.53" y1="296.5" x2="-163.53" y2="296.5"/>
		<line class="st8" x1="-326.53" y1="366.05" x2="-163.53" y2="366.05"/>
		<polyline class="st20" points="-392.85,141.29 -375.58,160.81 -348.9,121.78 		"/>
		<polyline class="st20" points="-392.85,212.42 -375.58,231.93 -348.9,192.9 		"/>
		<line class="st21" x1="-392.63" y1="209.05" x2="-386.19" y2="215.79"/>
		<line class="st21" x1="-386.35" y1="141.8" x2="-380.92" y2="148.33"/>
	</g>
	<g id="Maniglia">
		<path class="st22" d="M-239.5,95.61h-87.11c-6.6,0-12-5.4-12-12V66.88c0-6.6,5.4-12,12-12h87.11c6.6,0,12,5.4,12,12v16.73
			C-227.5,90.21-232.9,95.61-239.5,95.61z"/>
		<path class="st22" d="M-309.02,53.64c2.86-14.23,13.35-24.79,25.85-24.79c12.86,0,23.6,11.17,26.08,26.03"/>
		<polyline class="st23" points="-325.11,69.02 -325.11,81.34 -283.06,82.12 		"/>
		<path class="st23" d="M-284.59,40.69c-2.11,0.09-4.05,1.32-5.46,2.89s-2.37,3.49-3.32,5.38"/>
	</g>
</g>
<g id="Assenze">
	<g>
		<path class="st1" d="M-678.12,270.95c-3.07-0.89-7.35-2.5-11.66-5.5c-4.23-2.96-6.72-6.34-8.41-8.75l0,0l-61.49-106.47l0.61,1.05
			c-26.48-48.1-95.4-58.68-146.54-26.3c-47.3,29.94-67.52,89.12-42.25,132.99l-0.48-0.83l62.35,107.99l0,0
			c1.3,2.9,2.38,7.5,2.69,13.12c0.26,4.71-0.39,8.8-1.12,11.82"/>
		<path class="st1" d="M-629.92,302.64l-248.89,143.7c-8.96-6.24-15.59-16.82-17.13-27.42c-1.93-13.25,5.04-20.15,5.99-21.05
			c73.56-42.47,147.13-84.94,220.69-127.42c1.36-0.54,10.45-3.92,21.42,3.42C-638.75,279.95-631.86,291.06-629.92,302.64z"/>
		<path class="st1" d="M-790.86,416.04l89.87-51.88c9.6,16.62-2.74,41.71-27.56,56.04C-753.37,434.52-781.26,432.66-790.86,416.04z"
			/>
		<path class="st1" d="M-884.76,95.96c-5.75,1.29-14.56,3.88-24.29,9.4c-9.88,5.61-16.71,11.96-20.79,16.28
			c-7.78-10.74-2.55-26.79,10.44-34.2C-906.96,80.36-891.45,84.17-884.76,95.96z"/>
	</g>
	<g id="ombre_1_">
		<line class="st3" x1="-904.07" y1="282.71" x2="-861.78" y2="355.95"/>
		<path class="st24" d="M-877.12,408.14c-0.46,1.09-2.12,5.35-0.47,10.42c1.48,4.56,4.71,6.98,5.77,7.7
			c5.27-2.99,10.54-5.97,15.82-8.96"/>
		<line class="st24" x1="-836.01" y1="405.75" x2="-790.61" y2="379.55"/>
		<path class="st3" d="M-922.46,250.78c-3.09-5.02-6.91-12.44-9.46-22.02c-2.52-9.49-2.9-17.76-2.72-23.63"/>
		<path class="st25" d="M-762.89,415.5c3.97,0.57,7.11,0.41,9.16,0.19c4.67-0.51,18.17-4.83,13.67-3.48l0,0"/>
	</g>
</g>
<g id="Note">
	<circle class="st26" cx="792.18" cy="365.62" r="8.41"/>
	<path class="st1" d="M754,70.57L572.73,391.01c-9.29,16.41,2.57,36.74,21.43,36.74h362.55c18.86,0,30.71-20.33,21.43-36.74
		L796.86,70.57C787.44,53.91,763.43,53.91,754,70.57z"/>
	<line class="st27" x1="775.43" y1="158.81" x2="775.43" y2="314.61"/>
	<circle class="st28" cx="775.43" cy="365.62" r="16.81"/>
	<line class="st29" x1="710.52" y1="205.58" x2="613.61" y2="385.47"/>
	<line class="st29" x1="735.71" y1="158.81" x2="725.62" y2="177.31"/>
	<line class="st26" x1="792.25" y1="193" x2="792.25" y2="321.9"/>
</g>
<g id="Bacheca">
	<path class="st30" d="M885.09,967.3l-217.49,2.81c-23.71,0.31-43.17-18.66-43.48-42.37l-3.61-280.07
		c-0.31-23.71,18.66-43.17,42.37-43.48l217.49-2.81c23.71-0.31,43.17,18.66,43.48,42.37l3.61,280.07
		C927.77,947.53,908.8,967,885.09,967.3z"/>
	<g>
		<path class="st31" d="M785.7,667.4l27.81-32.97c0.79-0.94,0.55-2.36-0.5-3l-11.9-7.12c-1.05-0.63-2.42-0.17-2.88,0.98
			l-15.91,40.09C781.49,667.48,784.24,669.13,785.7,667.4z"/>
		<path class="st32" d="M847.67,588.54c4.28,0.05,11.34-2.86,12.94-5.52l-40.8-24.42c-1.83,3.05-0.97,10.08,1.91,14.41l0,0
			l-13.11,22.83c-12.58-3.23-28.47,5.24-33.18,13.11l63.26,37.86c4.77-7.96,5.09-25.69-3.94-35.32l-0.18-0.11L847.67,588.54"/>
	</g>
	<g>
		<line class="st2" x1="683.92" y1="704.21" x2="864.26" y2="701.88"/>
		<line class="st2" x1="682.7" y1="771.49" x2="863.04" y2="769.16"/>
		<line class="st2" x1="683.49" y1="832.54" x2="863.83" y2="830.21"/>
		<line class="st2" x1="684.34" y1="898.3" x2="864.67" y2="895.97"/>
	</g>
	<line class="st21" x1="826.51" y1="581.65" x2="818" y2="597"/>
	<path class="st21" d="M808.64,605.49c-7.09-0.87-14.07,3.61-14.21,3.88"/>
	<g>
	</g>
	<g>
	</g>
	<g>
	</g>
	<g>
	</g>
	<g>
	</g>
</g>
</svg>
