<?xml version="1.0" encoding="utf-8"?>
<!-- Generator: Adobe Illustrator 23.0.2, SVG Export Plug-In . SVG Version: 6.00 Build 0)  -->
<svg version="1.1" xmlns="http://www.w3.org/2000/svg" xmlns:xlink="http://www.w3.org/1999/xlink" x="0px" y="0px"
	 viewBox="0 0 500 500" style="enable-background:new 0 0 500 500;" xml:space="preserve">
<style type="text/css">
	.st0{fill:#294592;stroke:#2E3192;stroke-width:15;stroke-miterlimit:10;}
	.st1{fill:#FFC400;stroke:#EFB103;stroke-width:12;stroke-linecap:round;stroke-linejoin:round;stroke-miterlimit:10;}
	.st2{fill:#E6E6E6;stroke:#B3B3B3;stroke-width:15;stroke-linecap:round;stroke-linejoin:round;stroke-miterlimit:10;}
	.st3{opacity:0.5;fill:none;stroke:#FFFFFF;stroke-width:15;stroke-linecap:round;stroke-linejoin:round;stroke-miterlimit:10;}
	.st4{opacity:0.3;fill:none;stroke:#FFFFFF;stroke-width:3;stroke-linecap:round;stroke-linejoin:round;stroke-miterlimit:10;}
	.st5{opacity:0.3;fill:none;stroke:#FFFFFF;stroke-width:12;stroke-linecap:round;stroke-linejoin:round;stroke-miterlimit:10;}
	.st6{fill:#FFC33B;stroke:#F8B732;stroke-width:11;stroke-linecap:round;stroke-linejoin:round;stroke-miterlimit:10;}
	.st7{opacity:0.3;fill:none;stroke:#FFFFFF;stroke-width:7;stroke-linecap:round;stroke-linejoin:round;stroke-miterlimit:10;}
	.st8{fill:none;stroke:#999999;stroke-width:15;stroke-linecap:round;stroke-linejoin:round;stroke-miterlimit:10;}
	.st9{fill:#666666;}
	.st10{fill:#808080;}
	.st11{fill:#4D4D4D;}
	.st12{fill:none;stroke:#333333;stroke-width:12;stroke-linecap:round;stroke-linejoin:round;stroke-miterlimit:10;}
	.st13{fill:none;stroke:#666666;stroke-width:12;stroke-linecap:round;stroke-linejoin:round;stroke-miterlimit:10;}
	.st14{fill:#009245;stroke:#008037;stroke-width:12;stroke-linecap:round;stroke-linejoin:round;stroke-miterlimit:10;}
	.st15{opacity:0.3;fill:none;stroke:#F2F2F2;stroke-width:6;stroke-linecap:round;stroke-linejoin:round;stroke-miterlimit:10;}
	.st16{opacity:0.3;fill:none;stroke:#F2F2F2;stroke-width:7;stroke-linecap:round;stroke-linejoin:round;stroke-miterlimit:10;}
	.st17{fill:none;stroke:#294592;stroke-width:36;stroke-linecap:round;stroke-linejoin:round;stroke-miterlimit:10;}
	.st18{fill:none;stroke:#0071BC;stroke-width:36;stroke-linecap:round;stroke-linejoin:round;stroke-miterlimit:10;}
	.st19{opacity:0.6;fill:none;stroke:#FFFFFF;stroke-width:12;stroke-linecap:round;stroke-linejoin:round;stroke-miterlimit:10;}
	.st20{fill:none;stroke:#C1272D;stroke-width:15;stroke-linecap:round;stroke-linejoin:round;stroke-miterlimit:10;}
	.st21{opacity:0.3;fill:none;stroke:#FFFFFF;stroke-width:5;stroke-linecap:round;stroke-linejoin:round;stroke-miterlimit:10;}
	.st22{fill:#FBC33B;stroke:#FBB03B;stroke-width:15;stroke-linecap:round;stroke-linejoin:round;stroke-miterlimit:10;}
	.st23{opacity:0.6;fill:none;stroke:#FFFFFF;stroke-width:7;stroke-linecap:round;stroke-linejoin:round;stroke-miterlimit:10;}
	.st24{fill:#FFC33B;stroke:#F8B732;stroke-width:15;stroke-linecap:round;stroke-linejoin:round;stroke-miterlimit:10;}
	.st25{fill:none;stroke:#F7931E;stroke-width:37;stroke-linecap:round;stroke-linejoin:round;stroke-miterlimit:10;}
	.st26{fill:#F7931E;stroke:#F7931E;stroke-width:11;stroke-linecap:round;stroke-linejoin:round;stroke-miterlimit:10;}
	.st27{opacity:0.6;fill:none;stroke:#FFFFFF;stroke-width:17;stroke-linecap:round;stroke-linejoin:round;stroke-miterlimit:10;}
	.st28{opacity:0.3;fill:none;stroke:#FFFFFF;stroke-width:17;stroke-linecap:round;stroke-linejoin:round;stroke-miterlimit:10;}
</style>
<g id="Argomenti">
	<g id="Ombre_1_">
	</g>
</g>
<g id="Voti_scrutinio">
	<g id="Cappello">
	</g>
	<g id="Nappa">
	</g>
</g>
<g id="Compiti">
	<g id="Foglio">
	</g>
	<g id="Penna">
		<g id="ombre">
		</g>
	</g>
</g>
<g id="Voti_giornalieri">
	<g id="Voto">
		<g>
			<path class="st17" d="M303.35,154.53c4.18,29.36,16.52,57.31,35.01,79.3"/>
			<path class="st17" d="M286.12,208.78c22.14-15.97,44.93-30.89,68.27-44.73"/>
		</g>
		<g>
			<path class="st17" d="M172.55,301.97c-0.64-8.01-3.99-20.02,2.27-26.25c19.59-19.49,42.07-35.58,66.32-47.46"/>
			<path class="st17" d="M180.18,376.73c-7.75-71.4-14.19-142.96-19.33-214.64c6.55,0.85,11.37,6.8,15.53,12.34
				c42.43,56.54,81.43,108.5,123.86,165.04c0.22-4.16,0,0,0,0"/>
		</g>
		<path class="st18" d="M266.35,61.81c-53.85,23.38-105.22,55.75-143.66,101.7S59.71,270.15,63.84,331.05
			c1.61,23.78,7.89,47.99,22.52,66.21c21.2,26.4,56.67,35.97,89.57,34.01c45.02-2.68,87.46-23.89,124.42-51.05
			c54.22-39.84,99.93-94.55,122.5-159.78c12.39-35.81,16-80.3-8.94-107.91c-20.72-22.93-54.04-26.42-84.19-25.96"/>
		<path class="st17" d="M266.81,64.97c-53.57,22.92-104.67,54.66-142.91,99.71S61.28,269.26,65.4,329
			c1.61,23.32,7.86,47.07,22.43,64.95c21.1,25.9,56.39,35.29,89.12,33.38c44.8-2.62,87.01-23.41,123.78-50.03
			c53.93-39.06,99.39-92.71,121.83-156.68c12.32-35.12,15.9-78.76-8.93-105.85c-20.62-22.5-53.77-25.93-83.77-25.48"/>
		<g id="Ombre">
			<line class="st19" x1="163.5" y1="264.64" x2="171.08" y2="359.55"/>
			<line class="st19" x1="158.08" y1="191.7" x2="162.49" y2="233.57"/>
			<path class="st19" d="M96.03,388.98c37.96,41.6,99.02,28.78,102.45,28"/>
			<path class="st19" d="M74.25,335.77c-0.07,5.59,0.58,16.83,7.23,28.45c0.82,1.44,2.09,3.66,3.89,6.19"/>
			<polyline class="st19" points="324.06,231.31 307.15,206.26 295.86,213.17 			"/>
		</g>
	</g>
</g>
<g id="Promemoria">
	<g id="Base">
	</g>
	<g id="Scritte">
		<g id="O">
		</g>
	</g>
	<g id="Maniglia">
	</g>
</g>
<g id="Assenze">
</g>
</svg>
